<?xml version="1.0" encoding="utf-8"?>
<!-- Generator: Adobe Illustrator 16.0.0, SVG Export Plug-In . SVG Version: 6.00 Build 0)  -->
<!DOCTYPE svg PUBLIC "-//W3C//DTD SVG 1.1//EN" "http://www.w3.org/Graphics/SVG/1.1/DTD/svg11.dtd">
<svg version="1.1" id="Layer_1" xmlns="http://www.w3.org/2000/svg" xmlns:xlink="http://www.w3.org/1999/xlink" x="0px" y="0px"
	 width="100px" height="100px" viewBox="0 0 100 100" enable-background="new 0 0 100 100" xml:space="preserve">
<g>
	<circle fill="#FBBD5E" cx="74.057" cy="25.997" r="21.494"/>
	<path fill="#16B49C" d="M79.325,71.977V29.415c0-3.133-2.563-5.693-5.693-5.693H11.567c-3.131,0-5.693,2.561-5.693,5.693v42.563
		H79.325z"/>
	<path fill="#183651" d="M79.325,73.401H5.874c-0.855,0-1.426-0.569-1.426-1.424V29.415c0-3.986,3.131-7.119,7.119-7.119h62.064
		c3.984,0,7.117,3.132,7.117,7.119v42.563C80.749,72.832,80.036,73.401,79.325,73.401z M7.297,70.553h70.604V29.415
		c0-2.42-1.852-4.271-4.27-4.271H11.567c-2.42,0-4.271,1.852-4.271,4.271v41.139H7.297z"/>
	<g>
		<rect x="11.567" y="29.415" fill="#FFFFFF" width="62.064" height="36.866"/>
		<path fill="#FFFFFF" d="M5.874,71.977v6.262c0,3.134,2.563,5.694,5.693,5.694h62.064c3.131,0,5.693-2.561,5.693-5.694v-6.262
			H5.874z"/>
	</g>
	<g>
		<path fill="#183651" d="M73.631,85.5H11.567c-3.988,0-7.119-3.132-7.119-7.117v-6.264c0-0.854,0.57-1.424,1.426-1.424h73.451
			c0.854,0,1.424,0.569,1.424,1.424v6.264C80.749,82.224,77.473,85.5,73.631,85.5z M7.297,73.401v4.838
			c0,2.42,1.85,4.272,4.27,4.272h62.064c2.418,0,4.27-1.853,4.27-4.272v-4.838H7.297z"/>
		<path fill="#183651" d="M52.706,95.607L52.706,95.607H32.491c-0.426,0-0.854-0.285-1.139-0.57
			c-0.283-0.427-0.283-0.854-0.141-1.28l4.127-10.107c0.285-0.569,0.713-0.854,1.279-0.854h11.959c0.57,0,1.139,0.284,1.281,0.854
			l4.127,9.965c0.145,0.283,0.287,0.428,0.287,0.854C54.129,95.037,53.559,95.607,52.706,95.607z M34.485,92.758h16.084L47.581,85.5
			H37.475L34.485,92.758z"/>
	</g>
	<path fill="#183651" d="M54.983,95.607h-24.77c-0.854,0-1.422-0.57-1.422-1.424s0.568-1.425,1.422-1.425h24.77
		c0.855,0,1.424,0.571,1.424,1.425S55.838,95.607,54.983,95.607z"/>
	<rect x="17.833" y="45.785" fill="#FFFFFF" width="9.82" height="9.821"/>
	<path fill="#183651" d="M27.795,57.171h-9.963c-0.857,0-1.426-0.567-1.426-1.423v-9.822c0-0.854,0.568-1.424,1.426-1.424h9.82
		c0.854,0,1.424,0.57,1.424,1.424v9.822C29.219,56.46,28.506,57.171,27.795,57.171z M19.252,54.325h6.977v-6.974h-6.977V54.325z"/>
	<rect x="37.616" y="45.785" fill="#FFFFFF" width="9.822" height="9.821"/>
	<path fill="#183651" d="M47.581,57.171h-9.822c-0.854,0-1.424-0.567-1.424-1.423v-9.822c0-0.854,0.57-1.424,1.424-1.424h9.822
		c0.855,0,1.424,0.57,1.424,1.424v9.822C49.004,56.46,48.293,57.171,47.581,57.171z M39.04,54.325h6.975v-6.974H39.04V54.325z"/>
	<rect x="57.403" y="45.785" fill="#FFFFFF" width="9.822" height="9.821"/>
	<path fill="#183651" d="M67.366,57.171h-9.82c-0.854,0-1.424-0.567-1.424-1.423v-9.822c0-0.854,0.57-1.424,1.424-1.424h9.82
		c0.855,0,1.426,0.57,1.426,1.424v9.822C68.792,56.46,68.079,57.171,67.366,57.171z M58.827,54.325h6.975v-6.974h-6.975V54.325z"/>
	<path fill="#183651" d="M27.795,62.866h-9.963c-0.857,0-1.426-0.568-1.426-1.424c0-0.854,0.568-1.422,1.426-1.422h9.82
		c0.854,0,1.424,0.568,1.424,1.422C29.077,62.297,28.506,62.866,27.795,62.866z"/>
	<path fill="#183651" d="M47.581,62.866h-9.822c-0.854,0-1.424-0.568-1.424-1.424c0-0.854,0.57-1.422,1.424-1.422h9.822
		c0.855,0,1.424,0.568,1.424,1.422C49.004,62.297,48.293,62.866,47.581,62.866z"/>
	<g>
		<path fill="#183651" d="M67.366,62.866h-9.82c-0.854,0-1.424-0.568-1.424-1.424c0-0.854,0.57-1.422,1.424-1.422h9.82
			c0.855,0,1.426,0.568,1.426,1.422C68.792,62.297,68.079,62.866,67.366,62.866z"/>
		<rect x="32.776" y="76.532" fill="#183651" width="2.848" height="2.848"/>
		<rect x="41.174" y="76.532" fill="#183651" width="2.848" height="2.848"/>
		<rect x="49.575" y="76.532" fill="#183651" width="2.846" height="2.848"/>
	</g>
	<path fill="#FFFFFF" d="M47.581,30.695l2.135-4.696l-3.273-1.852c0.283-1.281,0.283-2.562,0.143-3.699L50,18.737l-1.707-4.84
		l-3.701,0.855c-0.711-0.996-1.566-1.994-2.563-2.705l1.139-3.559l-4.697-2.135L36.62,9.485c-1.281-0.283-2.561-0.283-3.701-0.142
		l-1.707-3.417L26.37,7.634l0.855,3.701c-0.996,0.712-1.994,1.565-2.705,2.562l-3.701-1.139l-2.135,4.697l3.273,1.994
		c-0.283,1.281-0.283,2.562-0.143,3.7l-3.416,1.709l1.709,4.841l3.701-0.855c0.711,0.996,1.564,1.994,2.561,2.706l-1.139,3.558
		l4.699,2.135l1.992-3.273c1.281,0.283,2.563,0.283,3.701,0.143l1.709,3.416l4.838-1.708l-0.854-3.7
		c0.998-0.713,1.994-1.567,2.705-2.563L47.581,30.695z"/>
	<path fill="#183651" d="M37.333,38.952c-0.57,0-0.998-0.285-1.281-0.712l-1.281-2.562c-0.711,0-1.424,0-2.135-0.144l-1.566,2.42
		c-0.426,0.57-1.139,0.854-1.85,0.57l-4.699-2.136c-0.711-0.285-0.996-0.994-0.711-1.708l0.854-2.704
		c-0.57-0.427-0.998-0.996-1.424-1.566l-2.846,0.711c-0.711,0.143-1.424-0.283-1.709-0.854l-1.709-4.84
		c-0.283-0.711,0-1.424,0.711-1.707l2.563-1.282c0-0.712,0-1.423,0.145-2.136l-2.42-1.707c-0.57-0.427-0.855-1.141-0.57-1.852
		l2.135-4.697c0.285-0.711,0.998-0.996,1.709-0.711l2.705,0.854c0.428-0.568,0.994-0.997,1.564-1.424l-0.711-2.848
		c-0.143-0.709,0.285-1.423,0.854-1.707l4.84-1.709c0.713-0.284,1.424,0,1.709,0.713l1.424,2.563c0.713,0,1.424,0,2.135,0.141
		L37.333,5.5c0.426-0.569,1.139-0.854,1.85-0.569l4.699,2.135c0.711,0.285,0.996,0.997,0.711,1.709l-0.998,2.703
		c0.57,0.428,0.998,0.997,1.426,1.566l2.846-0.712c0.711-0.142,1.422,0.284,1.709,0.854l1.707,4.841c0.285,0.71,0,1.423-0.713,1.708
		l-2.561,1.281c0,0.711,0,1.423-0.143,2.134l2.42,1.567c0.568,0.426,0.854,1.138,0.568,1.852l-2.133,4.695
		c-0.285,0.711-0.998,0.996-1.709,0.711l-2.705-0.854c-0.426,0.57-0.996,0.998-1.566,1.425l0.713,2.849
		c0.141,0.709-0.285,1.422-0.855,1.706l-4.84,1.708C37.616,38.952,37.475,38.952,37.333,38.952z M35.481,32.688
		c0.57,0,0.996,0.285,1.281,0.713l1.139,2.277l2.42-0.854l-0.57-2.42c-0.141-0.571,0.145-1.14,0.57-1.567
		c0.854-0.568,1.709-1.422,2.42-2.275c0.428-0.429,0.998-0.714,1.566-0.429l2.42,0.712l1.139-2.277l-2.135-1.281
		c-0.57-0.284-0.711-0.855-0.711-1.424c0.141-1.139,0.285-2.135,0.141-3.273c0-0.569,0.285-1.141,0.713-1.424l2.277-1.14
		l-0.854-2.42l-2.42,0.571c-0.57,0.141-1.139-0.143-1.566-0.571c-0.57-0.854-1.422-1.708-2.277-2.419
		c-0.428-0.428-0.711-0.996-0.428-1.566l0.711-2.42L39.04,8.061l-1.281,2.137c-0.283,0.566-0.854,0.71-1.424,0.71
		c-1.137-0.144-2.135-0.284-3.273-0.144c-0.568,0-1.139-0.283-1.422-0.711L30.5,7.777l-2.563,0.852l0.568,2.421
		c0.143,0.57-0.143,1.14-0.568,1.566c-0.855,0.57-1.709,1.424-2.422,2.279c-0.426,0.426-0.994,0.71-1.564,0.426l-2.42-0.711
		l-1.141,2.277l2.135,1.282c0.572,0.284,0.713,0.853,0.713,1.423c-0.143,1.139-0.285,2.135-0.143,3.273
		c0,0.568-0.283,1.139-0.711,1.423l-2.277,1.14l0.854,2.419l2.42-0.569c0.57-0.141,1.139,0.145,1.564,0.569
		c0.57,0.854,1.424,1.709,2.279,2.421c0.428,0.427,0.711,0.996,0.428,1.566l-0.713,2.418l2.279,1.143l1.279-2.137
		c0.285-0.569,0.854-0.712,1.424-0.712c1.139,0.143,2.137,0.284,3.275,0.143C35.481,32.688,35.481,32.688,35.481,32.688z"/>
	<circle fill="#F06151" cx="34.2" cy="21.727" r="8.968"/>
	<circle fill="#FFFFFF" cx="34.2" cy="21.728" r="3.558"/>
	<path fill="#183651" d="M34.2,26.708c-0.713,0-1.424-0.141-2.135-0.426c-1.139-0.568-2.135-1.564-2.563-2.848
		c-0.426-1.279-0.426-2.561,0.143-3.842c0.855-1.71,2.563-2.848,4.555-2.848c0.711,0,1.424,0.143,2.135,0.428
		c2.42,1.139,3.561,4.128,2.42,6.549C37.901,25.57,36.051,26.708,34.2,26.708z M34.2,19.592c-0.854,0-1.564,0.427-1.992,1.28
		c-0.285,0.569-0.285,1.139,0,1.566c0.283,0.427,0.568,0.995,1.139,1.139c0.998,0.427,2.277,0,2.848-0.996
		c0.426-0.996,0-2.278-0.996-2.847C34.768,19.735,34.485,19.592,34.2,19.592z"/>
	<path fill="#FFFFFF" d="M91.282,28.987v-5.553l-4.127-0.424c-0.285-1.283-0.855-2.563-1.566-3.702l2.561-3.274l-3.842-3.844
		l-3.273,2.563c-1.139-0.713-2.422-1.14-3.701-1.566l-0.428-4.129h-5.553l-0.426,4.129c-1.281,0.285-2.561,0.854-3.701,1.566
		L63.95,12.19l-3.842,3.844l2.563,3.274c-0.713,1.14-1.139,2.419-1.566,3.702l-4.129,0.424v5.553l4.129,0.428
		c0.283,1.28,0.854,2.561,1.566,3.7l-2.563,3.274l3.842,3.844l3.275-2.563c1.141,0.711,2.42,1.139,3.701,1.565l0.428,4.128h5.551
		l0.428-4.128c1.279-0.284,2.563-0.854,3.701-1.565l3.273,2.563l3.842-3.844l-2.561-3.274c0.711-1.14,1.139-2.42,1.566-3.7
		L91.282,28.987z"/>
	<path fill="#183651" d="M76.905,44.788h-5.553c-0.711,0-1.279-0.57-1.422-1.281l-0.428-3.132c-0.711-0.283-1.564-0.567-2.277-0.997
		l-2.422,1.994c-0.566,0.429-1.422,0.429-1.85-0.143l-3.844-3.842c-0.57-0.57-0.57-1.283-0.141-1.853l1.992-2.42
		c-0.426-0.711-0.713-1.423-0.998-2.278l-3.131-0.426c-0.711-0.143-1.281-0.711-1.281-1.424v-5.553c0-0.711,0.57-1.279,1.281-1.423
		l3.131-0.426c0.285-0.712,0.572-1.566,0.998-2.277l-1.992-2.421c-0.43-0.57-0.43-1.424,0.141-1.852l3.844-3.843
		c0.572-0.569,1.283-0.569,1.85-0.142l2.422,1.992c0.713-0.428,1.424-0.712,2.277-0.996l0.428-3.132
		c0.143-0.71,0.711-1.281,1.422-1.281h5.553c0.711,0,1.281,0.571,1.424,1.281l0.428,3.132c0.711,0.284,1.566,0.568,2.277,0.996
		l2.42-1.992c0.568-0.428,1.424-0.428,1.85,0.142l3.844,3.843c0.57,0.569,0.57,1.281,0.143,1.852l-1.992,2.561
		c0.426,0.713,0.711,1.425,0.996,2.279l3.131,0.428c0.713,0.141,1.281,0.711,1.281,1.423v5.552c0,0.711-0.568,1.281-1.281,1.423
		l-3.131,0.284c-0.285,0.713-0.57,1.567-0.996,2.278l1.992,2.42c0.428,0.569,0.428,1.424-0.143,1.853l-3.844,3.842
		c-0.57,0.57-1.281,0.57-1.85,0.143l-2.563-1.994c-0.713,0.43-1.424,0.714-2.279,0.997l-0.426,3.132
		C78.186,44.217,77.616,44.788,76.905,44.788z M72.633,41.94h2.99l0.285-2.847c0.141-0.568,0.428-1.139,1.139-1.282
		c1.139-0.283,2.277-0.71,3.275-1.422c0.568-0.285,1.139-0.285,1.564,0.143l2.279,1.708l2.133-2.136l-1.707-2.277
		c-0.426-0.426-0.426-1.139-0.143-1.567c0.568-0.995,1.139-2.134,1.422-3.272c0.145-0.568,0.57-0.997,1.283-1.14L90,27.563v-2.988
		l-2.846-0.286c-0.572-0.142-1.139-0.427-1.283-1.139c-0.283-1.139-0.711-2.277-1.422-3.273c-0.283-0.568-0.283-1.14,0.143-1.567
		l1.707-2.133l-2.133-2.137l-2.279,1.709c-0.426,0.428-1.139,0.428-1.564,0.143c-0.998-0.57-2.137-1.139-3.275-1.424
		c-0.568-0.143-0.998-0.57-1.139-1.281l-0.285-2.848h-2.99l-0.285,2.848c-0.141,0.57-0.426,1.139-1.139,1.281
		c-1.139,0.285-2.277,0.711-3.271,1.424c-0.572,0.285-1.141,0.285-1.568-0.143l-2.275-1.709l-2.137,2.137l1.709,2.277
		c0.428,0.427,0.428,1.139,0.143,1.565c-0.57,0.997-1.139,2.136-1.424,3.274c-0.143,0.568-0.57,0.995-1.279,1.139l-2.85,0.285v2.988
		l2.85,0.284c0.566,0,1.137,0.429,1.279,1.14c0.285,1.139,0.713,2.277,1.424,3.274c0.285,0.569,0.285,1.139-0.143,1.565
		l-1.709,2.277l2.137,2.135l2.275-1.709c0.428-0.426,1.141-0.426,1.568-0.141c0.994,0.569,2.135,1.139,3.271,1.423
		c0.57,0.143,0.998,0.57,1.141,1.281L72.633,41.94z"/>
	<circle fill="#E0E4E8" cx="74.057" cy="26.282" r="9.538"/>
	<circle fill="#FFFFFF" cx="74.057" cy="26.282" r="3.843"/>
	<path fill="#183651" d="M74.057,31.407c-2.848,0-5.266-2.277-5.266-5.266c0-2.848,2.277-5.269,5.266-5.269
		c2.848,0,5.268,2.277,5.268,5.269C79.325,29.129,77.047,31.407,74.057,31.407z M74.057,23.862c-1.281,0-2.42,1.14-2.42,2.42
		c0,1.281,1.139,2.42,2.42,2.42s2.422-1.139,2.422-2.42C76.479,24.859,75.481,23.862,74.057,23.862z"/>
</g>
</svg>
