<?xml version="1.0" encoding="utf-8"?>
<!-- Generator: Adobe Illustrator 16.0.0, SVG Export Plug-In . SVG Version: 6.00 Build 0)  -->
<!DOCTYPE svg PUBLIC "-//W3C//DTD SVG 1.1//EN" "http://www.w3.org/Graphics/SVG/1.1/DTD/svg11.dtd">
<svg version="1.1" id="Layer_1" xmlns="http://www.w3.org/2000/svg" xmlns:xlink="http://www.w3.org/1999/xlink" x="0px" y="0px"
	 width="100px" height="100px" viewBox="0 0 100 100" enable-background="new 0 0 100 100" xml:space="preserve">
<g>
	<circle fill="#E0E4E8" cx="36.375" cy="63.554" r="31.79"/>
	<path fill="#16B49C" d="M88.318,5.936H26.016c-3.121,0-5.676,2.555-5.676,5.676v32.641c0,3.123,2.555,5.678,5.676,5.678H67.6
		v15.609L84.061,49.93h4.258c3.121,0,5.676-2.555,5.676-5.678V11.611C93.994,8.49,91.439,5.936,88.318,5.936z"/>
	<path fill="#183651" d="M67.029,66.959c-0.566-0.285-0.85-0.709-0.85-1.277V51.49H26.016c-3.973,0-7.096-3.121-7.096-7.096V11.754
		c0-3.975,3.123-7.098,7.096-7.098h62.303c3.973,0,7.096,3.123,7.096,7.098v32.641c0,3.973-3.123,7.096-7.096,7.096h-3.691
		L68.59,66.674C68.166,66.959,67.455,67.1,67.029,66.959z M26.016,7.354c-2.412,0-4.258,1.846-4.258,4.258v32.641
		c0,2.414,1.846,4.258,4.258,4.258H67.6c0.85,0,1.418,0.566,1.418,1.42v12.346l14.049-13.34c0.283-0.285,0.568-0.426,0.994-0.426
		h4.258c2.412,0,4.258-1.844,4.258-4.258V11.611c0-2.412-1.846-4.258-4.258-4.258H26.016L26.016,7.354z"/>
	<polygon fill="#FFFFFF" points="73.273,44.252 26.016,44.252 26.016,11.611 88.318,11.611 88.318,44.252 81.789,44.252 
		73.273,52.342 	"/>
	<g>
		<polygon fill="#FBBD5E" points="35.24,27.791 32.26,24.809 36.375,24.242 38.363,20.41 40.207,24.242 44.467,24.809 
			41.344,27.791 42.053,31.906 38.363,29.918 34.531,31.906 		"/>
		<polygon fill="#FBBD5E" points="54.115,27.791 51.135,24.809 55.25,24.242 57.096,20.41 59.082,24.242 63.197,24.809 
			60.217,27.791 60.928,31.906 57.096,29.918 53.404,31.906 		"/>
		<polygon fill="#FBBD5E" points="72.99,27.791 69.869,24.809 74.127,24.242 75.971,20.41 77.816,24.242 82.074,24.809 
			79.094,27.791 79.801,31.906 75.971,29.918 72.281,31.906 		"/>
	</g>
	<g>
		<rect x="36.943" y="14.166" fill="#183651" width="2.838" height="2.838"/>
		<rect x="55.678" y="14.166" fill="#183651" width="2.836" height="2.838"/>
		<rect x="74.551" y="14.166" fill="#183651" width="2.84" height="2.838"/>
		<rect x="36.943" y="35.453" fill="#183651" width="2.838" height="2.838"/>
		<rect x="55.678" y="35.453" fill="#183651" width="2.836" height="2.838"/>
		<rect x="74.551" y="35.453" fill="#183651" width="2.84" height="2.838"/>
	</g>
	<rect x="13.385" y="49.076" fill="#FFFFFF" width="15.186" height="32.783"/>
	<path fill="#183651" d="M28.57,83.279H13.385c-0.852,0-1.418-0.568-1.418-1.42V49.076c0-0.85,0.566-1.418,1.418-1.418H28.57
		c0.852,0,1.42,0.568,1.42,1.418v32.783C29.99,82.57,29.281,83.279,28.57,83.279z M14.805,80.441H27.15V50.496H14.805V80.441z"/>
	<rect x="18.354" y="54.186" fill="#2EA0DA" width="5.107" height="22.707"/>
	<path fill="#FBBD5E" d="M60.928,55.322V55.18c0-1.988-1.563-3.689-3.689-3.689h-8.09l0,0c2.129-5.109,1.846-8.656,1.846-8.656
		c0-8.516-5.678-5.252-5.678-5.252c-0.85,5.961-3.123,8.088-3.123,8.088c-1.561,1.42-3.83,3.832-5.533,5.961h-0.424
		c-3.125,0-4.971,0.854-7.666,2.414v24.693c3.975,1.561,7.096,2.412,11.354,2.412h17.031c1.844,0,3.689-1.418,3.83-3.264
		c0.285-2.129-1.418-3.975-3.547-3.975c1.986,0,3.689-1.561,3.689-3.688V70.08c0-1.986-1.561-3.689-3.689-3.689
		c1.986,0,3.689-1.561,3.689-3.689v-0.143c0-1.986-1.561-3.689-3.689-3.689h0.141C59.225,59.012,60.928,57.309,60.928,55.322z"/>
	<path fill="#183651" d="M56.955,82.57H39.924c-4.684,0-7.805-0.852-11.922-2.555c-0.566-0.283-0.852-0.709-0.852-1.277V54.045
		c0-0.568,0.285-0.994,0.711-1.279c2.555-1.559,4.684-2.553,8.088-2.695c2.129-2.553,3.975-4.398,5.252-5.535
		c0,0,1.986-1.844,2.695-7.236c0-0.426,0.285-0.852,0.711-0.994c0.143-0.141,1.418-0.852,2.98-0.852
		c2.553,0,4.824,1.846,4.824,7.381c0,0,0.143,2.979-1.135,7.236h5.961c2.838,0,5.107,2.271,5.107,5.109v0.143
		c0,1.418-0.566,2.697-1.561,3.689c0.852,0.852,1.561,2.129,1.561,3.549v0.141c0,1.418-0.566,2.697-1.561,3.689
		c0.994,0.852,1.561,2.271,1.561,3.691v0.143c0,1.418-0.566,2.695-1.561,3.688c0.143,0.143,0.143,0.143,0.283,0.283
		c0.994,0.996,1.42,2.414,1.277,3.834C61.922,80.582,59.648,82.57,56.955,82.57z M29.99,77.744c3.406,1.277,6.102,1.988,9.934,1.988
		h17.031c1.275,0,2.27-0.854,2.41-1.988c0-0.568-0.141-1.275-0.566-1.703c-0.426-0.426-0.994-0.709-1.703-0.709
		c-0.852,0-1.418-0.568-1.418-1.42s0.566-1.418,1.418-1.418c1.277,0,2.27-0.994,2.27-2.27V70.08c0-1.275-0.992-2.27-2.27-2.27
		c-0.852,0-1.418-0.568-1.418-1.42s0.566-1.42,1.418-1.42c1.277,0,2.27-0.992,2.27-2.27v-0.143c0-1.275-0.992-2.27-2.27-2.27
		c-0.852,0-1.418-0.568-1.418-1.42c0-0.85,0.566-1.42,1.418-1.42c1.277,0,2.27-0.992,2.27-2.27v-0.143
		c0-1.277-0.992-2.271-2.27-2.271h-7.805c-0.426,0-0.854-0.141-1.137-0.566c-0.283-0.141-0.424-0.568-0.283-0.994
		c0,0,0-0.141,0-0.283c1.846-4.684,1.703-8.088,1.703-8.088c0-1.846-0.143-4.543-1.986-4.543c-0.285,0-0.711,0.143-0.994,0.143
		c-0.994,5.818-3.264,7.947-3.547,8.232c-1.277,1.135-3.123,3.121-5.393,5.818c-0.285,0.281-0.711,0.566-1.137,0.566h-0.426
		c-2.412,0-3.973,0.568-6.244,1.846v22.848H29.99L29.99,77.744z"/>
</g>
</svg>
