<?xml version="1.0" encoding="utf-8"?>
<!-- Generator: Adobe Illustrator 16.0.0, SVG Export Plug-In . SVG Version: 6.00 Build 0)  -->
<!DOCTYPE svg PUBLIC "-//W3C//DTD SVG 1.1//EN" "http://www.w3.org/Graphics/SVG/1.1/DTD/svg11.dtd">
<svg version="1.1" id="Layer_1" xmlns="http://www.w3.org/2000/svg" xmlns:xlink="http://www.w3.org/1999/xlink" x="0px" y="0px"
	 width="38px" height="38px" viewBox="0 0 38 38" enable-background="new 0 0 38 38" xml:space="preserve">
<rect x="-20" y="-20" display="none" fill="#231F20" width="78" height="78"/>
<g>
	<path fill="#FFFFFF" d="M7.481,13.013c-1.106,0-2.002,0.783-2.002,1.752v7.492c0,0.968,0.896,1.753,2.002,1.753
		c1.104,0,2.002-0.785,2.002-1.753v-7.492C9.483,13.797,8.586,13.013,7.481,13.013z M22.624,5.686l1.75-1.745
		c0.217-0.215,0.217-0.563,0-0.779c-0.216-0.215-0.564-0.215-0.781,0L21.44,5.311c-0.771-0.188-1.583-0.292-2.429-0.292
		c-0.835,0-1.641,0.104-2.401,0.286l-2.149-2.144c-0.216-0.215-0.566-0.215-0.781,0c-0.216,0.216-0.216,0.564,0,0.779l1.741,1.736
		c-2.905,1.113-4.923,3.528-4.923,6.335c0,0.033,17.026,0.002,17.026,0C27.525,9.212,25.519,6.804,22.624,5.686z M16.507,10.014
		c-0.554,0-1.001-0.447-1.001-1c0-0.552,0.447-1,1.001-1c0.555,0,1.002,0.448,1.002,1C17.51,9.565,17.059,10.014,16.507,10.014z
		 M21.516,10.014c-0.554,0-1.001-0.447-1.001-1c0-0.552,0.447-1,1.001-1s1.002,0.448,1.002,1S22.068,10.014,21.516,10.014z
		 M30.521,13.013c-1.106,0-2.004,0.783-2.004,1.752v7.492c0,0.968,0.897,1.753,2.004,1.753c1.105,0,2-0.786,2-1.753v-7.492
		C32.521,13.797,31.623,13.013,30.521,13.013z M10.498,25.001c0,1.652,1.34,2.99,2.994,2.996v5.25c0,0.969,0.896,1.753,2.002,1.753
		s2.002-0.784,2.002-1.753v-5.25h3.008v5.25c0,0.969,0.896,1.753,2.002,1.753s2.002-0.784,2.002-1.753v-5.25h0.013
		c1.659,0,3.005-1.342,3.005-2.996V13.01H10.499L10.498,25.001L10.498,25.001z"/>
</g>
</svg>
