<?xml version="1.0" encoding="utf-8"?>
<!-- Generator: Adobe Illustrator 16.0.0, SVG Export Plug-In . SVG Version: 6.00 Build 0)  -->
<!DOCTYPE svg PUBLIC "-//W3C//DTD SVG 1.1//EN" "http://www.w3.org/Graphics/SVG/1.1/DTD/svg11.dtd">
<svg version="1.1" id="Layer_1" xmlns="http://www.w3.org/2000/svg" xmlns:xlink="http://www.w3.org/1999/xlink" x="0px" y="0px"
	 width="38px" height="38px" viewBox="0 0 38 38" enable-background="new 0 0 38 38" xml:space="preserve">
<rect x="-20" y="-20" display="none" fill="#231F20" width="78" height="78"/>
<g>
	<path fill="#FFFFFF" d="M19,3C10.163,3,3,10.163,3,19c0,8.835,7.163,16,16,16s16-7.164,16-16S27.837,3,19,3z M19,32
		c-7.18,0-13-5.82-13-13S11.82,6,19,6s13,5.82,13,13S26.18,32,19,32z M18.926,14.502c0.113-0.202,0.045-0.46-0.152-0.577
		l-1.084-0.629c-0.198-0.116-0.455-0.046-0.568,0.155l-1.661,2.932l-1.831,3.229l-1.527,2.696c-0.114,0.2-0.045,0.46,0.152,0.573
		l1.084,0.631c0.198,0.116,0.454,0.046,0.569-0.154l2.123-3.746l1.372-2.421L18.926,14.502z M18.063,18.004l-1.667,3.006h5.884
		l-1.5-3.006C20.781,18.004,18.063,18.004,18.063,18.004z M13.269,18.004H11c-0.552,0-1,0.449-1,1.002v1.003
		c0,0.553,0.448,1.001,1,1.001h0.468L13.269,18.004z M12.981,23.997l-1.083-0.63c-0.197-0.115-0.38-0.021-0.407,0.209l-0.188,1.652
		c-0.025,0.229,0.107,0.313,0.297,0.183l1.399-0.966C13.189,24.313,13.182,24.112,12.981,23.997z M24.815,19.653l-0.022-0.041
		l-0.684-1.317l-0.013-0.023l-0.077-0.149l-0.059-0.109l-0.049-0.096l-0.09-0.172l-0.028-0.053l-0.103-0.197l-0.029-0.058
		c-0.764-1.462-1.723-3.263-2.314-4.208c-1.034-1.659-2.418-4.423-2.804-4.228c-0.541,0.273,1.133,3.782,1.688,5.102
		c0.554,1.317,2.716,6.371,3.148,6.592c0.434,0.22,0.602,0.098,0.891-0.023C24.562,20.549,25.08,20.144,24.815,19.653z M27,18.004
		h-2.131l1.715,3.006H27c0.553,0,1-0.448,1-1.001v-1.003C28,18.453,27.553,18.004,27,18.004z M26.051,22.258l-0.516-1.004
		c-0.117-0.227-0.393-0.32-0.611-0.206l-0.622,0.324c-0.219,0.114-0.288,0.384-0.153,0.601l0.653,1.046
		c0.135,0.215,0.419,0.286,0.631,0.155l0.444-0.271C26.089,22.776,26.167,22.483,26.051,22.258z M25.892,23.709
		c-0.161,0.159-0.548,0.501-0.081,1.167s1.508,0.696,1.646,1.138C27.456,26.014,27.783,22.63,25.892,23.709z"/>
</g>
</svg>
