<?xml version="1.0" encoding="utf-8"?>
<!-- Generator: Adobe Illustrator 16.0.0, SVG Export Plug-In . SVG Version: 6.00 Build 0)  -->
<!DOCTYPE svg PUBLIC "-//W3C//DTD SVG 1.1//EN" "http://www.w3.org/Graphics/SVG/1.1/DTD/svg11.dtd">
<svg version="1.1" id="Layer_1" xmlns="http://www.w3.org/2000/svg" xmlns:xlink="http://www.w3.org/1999/xlink" x="0px" y="0px"
	 width="38px" height="38px" viewBox="0 0 38 38" enable-background="new 0 0 38 38" xml:space="preserve">
<rect x="-20" y="-20" display="none" fill="#2D2D2D" width="78" height="78"/>
<g>
	<path fill="#FFFFFF" d="M27.732,20.003c-0.04-4.052,3.306-5.997,3.455-6.093c-1.879-2.75-4.808-3.127-5.851-3.171
		c-2.492-0.252-4.863,1.467-6.127,1.467c-1.263,0-3.213-1.429-5.279-1.392c-2.717,0.041-5.221,1.58-6.62,4.012
		c-2.821,4.896-0.722,12.151,2.028,16.123c1.344,1.943,2.946,4.127,5.05,4.049c2.026-0.081,2.794-1.311,5.243-1.311
		c2.45,0,3.139,1.311,5.282,1.271c2.181-0.04,3.562-1.98,4.897-3.931c1.542-2.256,2.18-4.438,2.217-4.551
		C31.979,26.454,27.776,24.844,27.732,20.003z M23.705,8.11C24.82,6.755,25.574,4.875,25.37,3c-1.61,0.065-3.56,1.072-4.714,2.423
		c-1.035,1.2-1.941,3.113-1.698,4.951C20.753,10.515,22.587,9.462,23.705,8.11z"/>
</g>
</svg>
