<svg xmlns="http://www.w3.org/2000/svg" x="0px" y="0px" width="38px" height="38px" viewBox="0 0 38 38" enable-background="new 0 0 38 38" xml:space="preserve">
<g>
	<path fill="#FFFFFF" d="M10.613,4.832c-3.928,0-7.113,3.186-7.113,7.113c0,3.926,3.185,7.113,7.113,7.113
		c3.926,0,7.114-3.188,7.114-7.113C17.727,8.018,14.539,4.832,10.613,4.832z M9.324,15.408l-2.942-2.941l1.038-1.036l1.904,1.896
		l4.844-4.843l1.035,1.043L9.324,15.408z"/>
</g>
<g>
	<path fill="none" d="M21.775,9.994c3.596,0,6.689,2.518,8.076,6.135c0.164-0.334,0.399-0.623,0.687-0.85
		c-0.439-4.449-4.2-7.934-8.763-7.934c-1.13,0-2.214,0.215-3.209,0.605c0.384,0.76,0.66,1.582,0.813,2.446
		C20.138,10.146,20.938,9.994,21.775,9.994z"/>
	<path fill="#FFFFFF" d="M33.484,15.219C33.005,9.177,27.939,4.408,21.775,4.408c-1.786,0-3.472,0.41-4.988,1.124
		c0.721,0.696,1.324,1.515,1.779,2.419c0.996-0.391,2.079-0.605,3.209-0.605c4.563,0,8.324,3.484,8.763,7.934
		c-0.288,0.227-0.523,0.516-0.687,0.85c-1.387-3.617-4.48-6.135-8.076-6.135c-0.837,0-1.637,0.152-2.397,0.403
		c0.089,0.503,0.143,1.019,0.143,1.548c0,4.918-3.99,8.907-8.908,8.907c-0.532,0-1.054-0.055-1.561-0.145v2.624
		c0,1.355,1.103,2.448,2.449,2.448c0.924,0,1.728-0.513,2.143-1.27c0.011,0.03,0.023,0.06,0.033,0.091
		c0.005,0.009,0.008,0.018,0.01,0.027c0.979,2.572,2.879,4.729,5.389,5.674c0.606-0.966,1.679-1.605,2.903-1.605h4.29
		c0.431,0,0.828-0.121,1.176-0.316c0.587-0.328,1.115-1.162,1.388-1.602c0.434-0.707,0.773-1.453,1.071-2.269
		c0.17,0.306,0.401,0.572,0.678,0.78v1.051c0,2.379-1.935,4.313-4.313,4.313h-4.29c-0.812,0-1.469,0.657-1.469,1.47
		c0,0.812,0.657,1.468,1.469,1.468h4.29c3.998,0,7.25-3.252,7.25-7.25v-1.051c0.597-0.447,0.98-1.159,0.98-1.959v-4.429v-1.701
		C34.5,16.385,34.098,15.664,33.484,15.219z"/>
</g>
</svg>
