<svg xmlns="http://www.w3.org/2000/svg" x="0px" y="0px" width="38px" height="38px" viewBox="0 0 38 38" enable-background="new 0 0 38 38" xml:space="preserve">
<g>
	<path fill="#6d4072" d="M30.083,6.333h-6.618C22.801,4.496,21.058,3.167,19,3.167s-3.8,1.329-4.465,3.166H7.917
		C6.175,6.333,4.75,7.758,4.75,9.5v22.167c0,1.74,1.425,3.166,3.167,3.166h22.167c1.741,0,3.167-1.426,3.167-3.166V9.5
		C33.25,7.758,31.824,6.333,30.083,6.333z M19,6.333c0.871,0,1.583,0.713,1.583,1.584c0,0.87-0.713,1.583-1.583,1.583
		s-1.583-0.713-1.583-1.583C17.417,7.046,18.129,6.333,19,6.333z M15.833,28.5L9.5,22.167l2.233-2.233l4.101,4.085l10.434-10.434
		l2.233,2.248L15.833,28.5z"/>
</g>
</svg>
