<svg xmlns="http://www.w3.org/2000/svg" x="0px" y="0px" width="38px" height="38px" viewBox="0 0 38 38" enable-background="new 0 0 38 38" xml:space="preserve">
<rect x="-20" y="-20" display="none" width="78" height="78"/>
<g>
	<path fill="#FFFFFF" d="M26.125,9.5v18.208c0,3.499-2.834,6.333-6.333,6.333s-6.334-2.834-6.334-6.333V7.917
		c0-2.185,1.773-3.958,3.959-3.958c2.185,0,3.958,1.773,3.958,3.958v16.625c0,0.871-0.713,1.583-1.583,1.583
		c-0.871,0-1.584-0.713-1.584-1.583V9.5h-2.375v15.042c0,2.185,1.773,3.958,3.959,3.958c2.185,0,3.958-1.773,3.958-3.958V7.917
		c0-3.499-2.834-6.333-6.333-6.333s-6.334,2.834-6.334,6.333v19.792c0,4.813,3.896,8.708,8.709,8.708s8.708-3.895,8.708-8.708V9.5
		H26.125z"/>
</g>
</svg>
