<svg xmlns="http://www.w3.org/2000/svg" width="38" height="38"><path d="M13.6 18.55a2.25 2.25 0 0 0-2.25 2.25c0 1.24 1.01 2.25 2.25 2.25s2.25-1.01 2.25-2.25a2.25 2.25 0 0 0-2.25-2.25zm10.8 0a2.25 2.25 0 0 0-2.25 2.25c0 1.24 1.01 2.25 2.25 2.25s2.25-1.01 2.25-2.25a2.25 2.25 0 0 0-2.25-2.25zM19 1A18.01 18.01 0 0 0 1 19a18.01 18.01 0 0 0 18 18 18.01 18.01 0 0 0 18-18A18.01 18.01 0 0 0 19 1zm0 32.4c-7.938 0-14.4-6.46-14.4-14.4 0-.522.036-1.044.1-1.548 4.25-1.89 7.613-5.364 9.378-9.667 3.26 4.608 8.622 7.614 14.688 7.614a17.57 17.57 0 0 0 4.05-.468A14.35 14.35 0 0 1 33.4 19c0 7.938-6.462 14.4-14.4 14.4z" fill="#fff"/></svg>