<svg xmlns="http://www.w3.org/2000/svg" x="0px" y="0px" width="38px" height="38px" viewBox="0 0 38 38" enable-background="new 0 0 38 38" xml:space="preserve">
<rect x="-20" y="-20" display="none" width="78" height="78"/>
<g>
	<g>
		<path fill="#FFFFFF" d="M31.683,25.95c-1.949,0-3.832-0.316-5.589-0.885c-0.556-0.191-1.172-0.049-1.599,0.38l-2.486,3.118
			c-4.481-2.138-8.678-6.176-10.91-10.814l3.088-2.628c0.428-0.443,0.554-1.061,0.381-1.614c-0.587-1.758-0.888-3.644-0.888-5.59
			c0-0.855-0.712-1.567-1.567-1.567H6.635c-0.856,0-1.885,0.38-1.885,1.567c0,14.709,12.239,26.933,26.933,26.933
			c1.125,0,1.567-0.998,1.567-1.868v-5.463C33.25,26.664,32.538,25.95,31.683,25.95z"/>
	</g>
	<path fill="#FFFFFF" d="M24.25,7.15v-4l-5,5l5,5v-4c3.311,0,6,2.69,6,6c0,3.311-2.689,6-6,6s-6-2.689-6-6h-2c0,4.42,3.58,8,8,8
		s8-3.58,8-8S28.67,7.15,24.25,7.15z"/>
</g>
</svg>
