<svg xmlns="http://www.w3.org/2000/svg" x="0px" y="0px" width="38px" height="38px" viewBox="0 0 38 38" enable-background="new 0 0 38 38" xml:space="preserve"><rect x="-20" y="-20" display="none" fill="#231F20" width="78" height="78"/><g><path fill="#008000" d="M31.683,24.351c-1.949,0-3.832-0.317-5.589-0.885c-0.555-0.191-1.172-0.048-1.599,0.38l-2.486,3.119c-4.481-2.138-8.678-6.176-10.91-10.814l3.088-2.628c0.427-0.444,0.553-1.061,0.38-1.615c-0.586-1.758-0.887-3.643-0.887-5.59c0-0.855-0.712-1.567-1.567-1.567H6.635c-0.856,0-1.885,0.38-1.885,1.567c0,14.709,12.239,26.933,26.933,26.933c1.125,0,1.567-0.998,1.567-1.868v-5.462C33.25,25.064,32.538,24.351,31.683,24.351z"/></g></svg>