<svg xmlns="http://www.w3.org/2000/svg" x="0px" y="0px" width="38px" height="38px" viewBox="0 0 38 38" enable-background="new 0 0 38 38" xml:space="preserve">
<rect x="-20" y="-20" display="none" width="78" height="78"/>
<g>
	<path fill="#FFFFFF" d="M19,15.355c-2.399,0-4.726,0.375-6.899,1.08v4.651c0,0.584-0.346,1.11-0.841,1.349
		c-1.471,0.735-2.804,1.68-3.99,2.776C7,25.48,6.625,25.63,6.221,25.63c-0.42,0-0.795-0.164-1.066-0.434l-3.719-3.721
		C1.164,21.221,1,20.846,1,20.425c0-0.42,0.164-0.795,0.436-1.065C6.01,15.026,12.189,12.355,19,12.355s12.99,2.67,17.564,7.005
		C36.836,19.63,37,20.005,37,20.425c0,0.42-0.164,0.795-0.436,1.065l-3.719,3.721c-0.271,0.27-0.646,0.434-1.066,0.434
		c-0.404,0-0.779-0.164-1.049-0.419c-1.187-1.11-2.535-2.041-4.005-2.774c-0.495-0.24-0.841-0.75-0.841-1.351v-4.65
		C23.726,15.73,21.399,15.355,19,15.355z"/>
</g>
</svg>
