<svg xmlns="http://www.w3.org/2000/svg" x="0px" y="0px" width="38px" height="38px" viewBox="0 0 38 38" enable-background="new 0 0 38 38" xml:space="preserve"><rect x="-20" y="-20" display="none" fill="#231F20" width="78" height="78"/><g><circle fill="#FFFFFF" cx="19" cy="20.8" r="5.76"/><path fill="#FFFFFF" d="M13.6,2.8l-3.294,3.6H4.6C2.621,6.4,1,8.02,1,10v21.6c0,1.979,1.621,3.6,3.6,3.6H33.4c1.979,0,3.6-1.621,3.6-3.6V10c0-1.98-1.621-3.6-3.6-3.6h-5.706L24.4,2.8H13.6z M19,29.8c-4.968,0-9-4.032-9-9c0-4.967,4.032-9,9-9s9,4.033,9,9C28,25.768,23.968,29.8,19,29.8z"/></g></svg>