<svg xmlns="http://www.w3.org/2000/svg" x="0px" y="0px" width="300px" height="300px" viewBox="0 0 300 300" enable-background="new 0 0 300 300" xml:space="preserve">
<g><path fill="#FF681F" d="M181.197,182.194c2.146-4.505,3.694-9.344,4.544-14.431l45.481,0.005l0.509-13.266l-45.173,0.003v-14.431
		h45.187l0.003-42.381c-0.003-19.792-7.036-37.938-18.744-52.085c-10.354-12.518-24.379-21.878-40.433-26.475
		c-7.175-2.063-14.735-3.189-22.57-3.192c-45.138,0.001-81.75,36.599-81.75,81.747v42.392l45.526-0.002v14.425l-45.526-0.003v13.269
		l46.346,0.004c0.851,5.084,2.392,9.918,4.539,14.425l-50.129-0.002c5.37,39.948,39.571,70.766,80.99,70.763
		c0.407,0,0.814-0.046,1.232-0.056l17.316,31.154l32.635-38.998c12.8-16.661,28.677-43.562,29.406-60.77l0.083-2.099
		L181.197,182.194z"/></g></svg>