<svg xmlns="http://www.w3.org/2000/svg" width="38" height="38"><path d="M33.924 25.46V22.2a.65.65 0 0 0-.65-.653H9.68a.65.65 0 0 0-.65.653v12.442a.65.65 0 0 0 .65.65h23.593c.357 0 .65-.293.65-.65v-6.105L37 26.998l-3.076-1.538zm-8.8 3.688h-12.8a.6.6 0 0 1-.601-.601.6.6 0 0 1 .601-.598h12.8a.6.6 0 0 1 .601.598.6.6 0 0 1-.601.601zm5.602-3.1H12.323a.6.6 0 1 1 0-1.202h18.4a.6.6 0 1 1 .001 1.202zm0 6.595H12.323a.6.6 0 1 1 0-1.202h18.4a.6.6 0 1 1 .001 1.202zM28.32 2.708H4.727a.65.65 0 0 0-.65.65v7.998L1 12.895l3.076 1.538v3.264a.65.65 0 0 0 .65.65H28.32a.65.65 0 0 0 .65-.65V3.357a.65.65 0 0 0-.65-.65zm-8.15 6.43H7.258a.6.6 0 0 1 0-1.202h12.9a.6.6 0 1 1 0 1.202zm5.602-3.103H7.258a.6.6 0 0 1-.598-.6c0-.333.267-.598.598-.598H25.77a.6.6 0 0 1 .601.598.6.6 0 0 1-.601.601zM20.17 15.6H7.258a.6.6 0 1 1 0-1.202h12.9a.6.6 0 1 1 0 1.202zm5.602-3.1H7.258a.6.6 0 1 1 0-1.202H25.77a.6.6 0 1 1 0 1.202z" fill="#fff"/></svg>