<?xml version="1.0" encoding="utf-8"?>
<!-- Generator: Adobe Illustrator 16.0.0, SVG Export Plug-In . SVG Version: 6.00 Build 0)  -->
<!DOCTYPE svg PUBLIC "-//W3C//DTD SVG 1.1//EN" "http://www.w3.org/Graphics/SVG/1.1/DTD/svg11.dtd">
<svg version="1.1" id="Layer_1" xmlns="http://www.w3.org/2000/svg" xmlns:xlink="http://www.w3.org/1999/xlink" x="0px" y="0px"
	 width="38px" height="38px" viewBox="0 0 38 38" enable-background="new 0 0 38 38" xml:space="preserve">
<rect x="-20" y="-20" display="none" fill="#231F20" width="78" height="78"/>
<g>
	<path fill="#FFFFFF" d="M19,12.987c3.314,0,6,2.688,6,6c0,3.314-2.686,5.999-6,5.999c-3.312,0-5.999-2.685-5.999-5.999
		C13.001,15.675,15.688,12.987,19,12.987z"/>
	<path fill="#FFFFFF" d="M19,26.986c-4.047,0-7.384-3.007-7.916-6.911L5.57,10.514L5.564,10.5l-0.617,0.891
		c-0.152,0.279-0.3,0.562-0.436,0.851l-0.295,0.69c-0.098,0.238-0.195,0.479-0.282,0.725c-0.098,0.273-0.183,0.549-0.264,0.826
		l-0.178,0.637c-0.074,0.297-0.137,0.594-0.194,0.893L3.19,16.643c-0.044,0.293-0.078,0.584-0.104,0.875l-0.052,0.697
		c-0.013,0.266-0.018,0.531-0.018,0.797s0.004,0.532,0.018,0.797l0.052,0.697c0.027,0.291,0.062,0.584,0.104,0.875l0.108,0.631
		c0.058,0.299,0.12,0.596,0.194,0.893l0.178,0.637c0.082,0.275,0.166,0.553,0.264,0.827c0.087,0.243,0.185,0.483,0.282,0.725
		c0.096,0.229,0.188,0.461,0.295,0.688c0.136,0.289,0.284,0.569,0.437,0.853l0.199,0.391l0.092,0.143
		c0.176,0.301,0.37,0.588,0.566,0.875l0.314,0.467c0.189,0.259,0.396,0.504,0.603,0.753l0.414,0.495
		c0.18,0.197,0.374,0.385,0.563,0.574c0.19,0.19,0.377,0.387,0.575,0.563L8.77,31.31c0.248,0.205,0.494,0.412,0.751,0.603
		l0.463,0.315c0.288,0.197,0.577,0.391,0.875,0.565l0.142,0.093l0.39,0.198c0.28,0.152,0.562,0.304,0.851,0.438l0.083,0.043
		l0.405,0.166c1.082,0.461,2.211,0.787,3.363,1.002l4.564-7.915C20.123,26.925,19.569,26.986,19,26.986z"/>
	<path fill="#FFFFFF" d="M34.944,17.897l-0.021-0.264c-0.113-1.336-0.662-3.27-1.118-4.567h-9.442
		c1.615,1.463,2.635,3.569,2.635,5.921c0,2.537-1.185,4.794-3.024,6.259L18.351,35c1.978,0,4.64-0.356,6.556-1.123l0.065-0.021
		l0.102-0.043c0.653-0.271,1.299-0.567,1.928-0.932c0.563-0.324,1.089-0.688,1.599-1.067l0.029-0.023
		c0.49-0.372,0.949-0.767,1.387-1.182l0.068-0.06l0.221-0.225c0.968-0.969,1.799-2.039,2.477-3.192l0.077-0.113l0.139-0.28
		c0.218-0.396,0.42-0.802,0.604-1.214l0.236-0.555c0.156-0.391,0.292-0.787,0.417-1.188l0.165-0.517
		c0.153-0.557,0.278-1.118,0.371-1.688l0.039-0.324c0.069-0.488,0.119-0.979,0.143-1.475l0.009-0.396
		C34.989,18.89,34.979,18.393,34.944,17.897z"/>
	<path fill="#FFFFFF" d="M32.849,10.988c-0.335-0.58-0.71-1.121-1.104-1.643l-0.129-0.16c-0.354-0.457-0.729-0.891-1.125-1.299
		l-0.268-0.275c-0.435-0.428-0.885-0.834-1.359-1.205l-0.104-0.088c-0.527-0.406-1.079-0.771-1.648-1.105l-0.114-0.076l-0.433-0.225
		c-0.25-0.135-0.499-0.27-0.755-0.391c-0.247-0.115-0.496-0.217-0.745-0.32l-0.627-0.25c-0.302-0.109-0.608-0.201-0.916-0.295
		l-0.51-0.148c-0.334-0.086-0.671-0.154-1.007-0.219L21.53,3.196c-0.328-0.053-0.656-0.086-0.985-0.117l-0.539-0.055
		c-0.282-0.018-0.563-0.016-0.848-0.02L18.465,3l-0.54,0.039c-1.194,0.08-2.388,0.293-3.561,0.648l-0.243,0.065
		c-0.296,0.096-0.59,0.213-0.884,0.328l-0.564,0.223c-0.241,0.103-0.48,0.224-0.721,0.343c-0.232,0.114-0.465,0.229-0.693,0.355
		L11,5.136l-0.384,0.248c-0.227,0.14-0.452,0.282-0.672,0.435C9.728,5.97,9.515,6.124,9.307,6.282l-0.55,0.439
		c-0.228,0.19-0.448,0.382-0.663,0.583L7.686,7.701c-0.237,0.238-0.469,0.48-0.688,0.73l-0.149,0.18l4.55,7.894
		c1.044-3.2,4.051-5.517,7.602-5.517H32.849z"/>
</g>
</svg>
