<svg xmlns="http://www.w3.org/2000/svg" width="38" height="38"><path d="M31.667 0H6.333v3.167h25.334V0zM6.333 38h25.334v-3.167H6.333V38zM31.667 6.333H6.333c-1.74 0-3.166 1.425-3.166 3.167v19a3.18 3.18 0 0 0 3.166 3.167h25.334c1.74 0 3.166-1.425 3.166-3.167v-19c0-1.742-1.425-3.167-3.166-3.167zM19 10.688a3.57 3.57 0 0 1 3.563 3.563A3.57 3.57 0 0 1 19 17.813a3.57 3.57 0 0 1-3.563-3.563A3.57 3.57 0 0 1 19 10.688zm7.917 16.23H11.083v-2.375c0-2.644 5.272-3.958 7.917-3.958s7.917 1.314 7.917 3.958v2.375z" fill="#fff"/></svg>