<svg xmlns="http://www.w3.org/2000/svg" x="0px" y="0px" width="38px" height="38px" viewBox="0 0 38 38" enable-background="new 0 0 38 38" xml:space="preserve">
<g>
	<path fill="#FFFFFF" d="M32.55,24.732v5.223c0,0.428-0.155,0.787-0.467,1.078c-0.311,0.291-0.681,0.447-1.108,0.467H7.025
		c-0.447,0-0.816-0.156-1.108-0.467c-0.292-0.313-0.448-0.67-0.467-1.078v-5.223c0-0.428,0.155-0.799,0.467-1.109
		c0.311-0.311,0.681-0.465,1.108-0.465h7.555l2.188,2.217c0.643,0.623,1.382,0.934,2.218,0.934c0.837,0,1.575-0.311,2.217-0.934
		l2.218-2.217h7.555c0.428,0,0.798,0.154,1.108,0.465C32.395,23.934,32.55,24.305,32.55,24.732z M27.24,15.457
		c0.195,0.445,0.118,0.826-0.232,1.137l-7.293,7.293c-0.194,0.213-0.438,0.32-0.729,0.32c-0.291,0-0.535-0.107-0.729-0.32
		l-7.293-7.293c-0.331-0.311-0.408-0.691-0.234-1.137c0.195-0.408,0.516-0.613,0.963-0.613h4.172V7.551
		c0-0.291,0.106-0.535,0.321-0.73c0.213-0.191,0.456-0.301,0.729-0.32h4.172c0.272,0,0.516,0.107,0.729,0.32
		c0.214,0.217,0.312,0.459,0.292,0.73v7.293h4.172C26.744,14.844,27.066,15.049,27.24,15.457z M26.278,28.379
		c0-0.293-0.098-0.535-0.291-0.729c-0.195-0.195-0.438-0.303-0.73-0.322c-0.292-0.018-0.535,0.088-0.729,0.322
		c-0.194,0.232-0.303,0.477-0.321,0.729c-0.02,0.254,0.088,0.496,0.321,0.729c0.232,0.234,0.476,0.342,0.729,0.322
		s0.496-0.129,0.73-0.322C26.22,28.914,26.317,28.67,26.278,28.379z M30.45,28.379c0-0.293-0.099-0.535-0.292-0.729
		c-0.194-0.195-0.447-0.303-0.759-0.322c-0.311-0.018-0.554,0.088-0.729,0.322c-0.175,0.232-0.272,0.477-0.291,0.729
		c-0.021,0.254,0.077,0.496,0.291,0.729c0.215,0.234,0.457,0.342,0.729,0.322s0.524-0.129,0.759-0.322
		C30.391,28.914,30.488,28.67,30.45,28.379z"/>
</g>
</svg>
