<?xml version="1.0" encoding="utf-8"?>
<!-- Generator: Adobe Illustrator 16.0.0, SVG Export Plug-In . SVG Version: 6.00 Build 0)  -->
<!DOCTYPE svg PUBLIC "-//W3C//DTD SVG 1.1//EN" "http://www.w3.org/Graphics/SVG/1.1/DTD/svg11.dtd">
<svg version="1.1" id="Layer_1" xmlns="http://www.w3.org/2000/svg" xmlns:xlink="http://www.w3.org/1999/xlink" x="0px" y="0px"
	 width="38px" height="38px" viewBox="0 0 38 38" enable-background="new 0 0 38 38" xml:space="preserve">
<rect x="-20" y="-20" display="none" fill="#2D2D2D" width="78" height="78"/>
<g>
	<g>
		<g>
			<path fill="#FFFFFF" d="M15.634,10.891c-1.283,1.39-1.924,3.1-2.138,4.917c3.848,0,7.587,0,11.328,0c0-0.321,0-0.534,0-0.855
				c-0.107-1.176-0.32-2.351-0.962-3.42c-0.854-1.39-2.244-2.137-3.847-2.351c-2.351-0.427-4.595,0-6.732,0.855
				c-3.206,1.175-5.877,3.1-8.015,5.664c-0.32,0.427-0.641,0.961-1.068,1.496c0-0.321,0-0.427,0.106-0.641
				c0.428-2.992,1.496-5.877,3.527-8.229c2.351-2.778,5.343-4.488,8.977-5.13c3.526-0.534,6.84,0,9.938,1.817
				c2.886,1.603,4.81,4.061,5.985,7.16c0.641,1.71,0.961,3.633,1.068,5.45c0,1.175,0,2.352,0,3.527c0,0.106,0,0.213,0,0.427
				c-6.732,0-13.358,0-20.09,0c0,1.604,0.534,3.1,1.603,4.275c1.282,1.389,2.992,2.03,4.702,2.351
				c3.847,0.535,7.374-0.106,10.687-2.03c0.107,0,0.214-0.107,0.214-0.107s0,0,0.107,0c0,0.107,0,0.214,0,0.32
				c0,2.031,0,4.061,0,6.092c0,0.214-0.107,0.321-0.321,0.427c-2.351,1.176-4.916,1.924-7.587,2.031
				c-1.71,0.106-3.419,0.106-5.022-0.214c-5.023-1.068-9.083-4.702-10.045-9.938c-1.068-5.985,1.816-11.435,7.48-13.893
				C15.526,10.891,15.526,10.891,15.634,10.891z"/>
		</g>
	</g>
</g>
</svg>
