<svg version="1.1" id="Layer_1" xmlns="http://www.w3.org/2000/svg" xmlns:xlink="http://www.w3.org/1999/xlink" x="0px" y="0px"
	 width="38px" height="38px" viewBox="0 0 38 38" enable-background="new 0 0 38 38" xml:space="preserve">
<rect x="-20" y="-20" display="none" fill="#2D2D2D" width="78" height="78"/>
<path fill="#FFFFFF" d="M19,1C9.064,1,1,9.064,1,19c0,9.935,8.064,18,18,18h9v-3.6h-9c-7.812,0-14.399-6.588-14.399-14.4
	S11.188,4.6,19,4.6S33.4,11.188,33.4,19v2.573c0,1.422-1.277,2.827-2.699,2.827C29.277,24.4,28,22.996,28,21.573V19
	c0-4.968-4.032-9-9-9s-9,4.032-9,9s4.032,9,9,9c2.484,0,4.753-1.009,6.372-2.646C26.541,26.956,28.559,28,30.701,28
	C34.248,28,37,25.121,37,21.573V19C37,9.064,28.936,1,19,1z M19,24.4c-2.988,0-5.399-2.412-5.399-5.4s2.411-5.4,5.399-5.4
	s5.4,2.412,5.4,5.4S21.988,24.4,19,24.4z"/>
</svg>
