<?xml version="1.0" encoding="utf-8"?>
<!-- Generator: Adobe Illustrator 16.0.0, SVG Export Plug-In . SVG Version: 6.00 Build 0)  -->
<!DOCTYPE svg PUBLIC "-//W3C//DTD SVG 1.1//EN" "http://www.w3.org/Graphics/SVG/1.1/DTD/svg11.dtd">
<svg version="1.1" id="Layer_1" xmlns="http://www.w3.org/2000/svg" xmlns:xlink="http://www.w3.org/1999/xlink" x="0px" y="0px"
	 width="100px" height="100px" viewBox="0 0 100 100" enable-background="new 0 0 100 100" xml:space="preserve">
<g>
	<circle fill="#F06151" cx="50" cy="49.167" r="43.593"/>
	<path fill="#FFFFFF" d="M88.318,69.574C84.57,66.66,81.1,61.939,81.1,61.939l-2.223-0.416l-10.969,7.219
		c-11.799,4.859-8.883,15.967-8.883,15.967c13.049,10.967,26.238,8.746,33.18,6.387V77.627
		C92.205,74.434,90.818,71.381,88.318,69.574z"/>
	<path fill="#183651" d="M80.959,94.426L80.959,94.426c-8.189,0-15.826-2.914-22.629-8.746c-0.277-0.139-0.416-0.416-0.416-0.693
		c0-0.139-3.055-12.357,9.441-17.494l10.967-7.08c0.277-0.137,0.693-0.277,0.971-0.137l2.223,0.416c0.277,0,0.693,0.277,0.832,0.555
		c0,0,3.332,4.58,6.943,7.357c2.775,2.082,4.441,5.555,4.441,9.164v13.465c0,0.557-0.416,1.111-0.971,1.25
		C88.873,93.732,84.846,94.426,80.959,94.426z M60.273,84.014c6.248,5.137,13.189,7.775,20.547,7.775l0,0
		c3.334,0,6.664-0.557,9.998-1.527V77.766c0-2.775-1.252-5.275-3.334-6.941c-3.191-2.498-6.107-6.107-7.08-7.357l-1.248-0.277
		l-10.553,6.941c-0.139,0-0.139,0.139-0.277,0.139C59.025,73.879,59.996,82.07,60.273,84.014z"/>
	<path fill="#CECFD0" d="M92.205,79.711v-2.084c0-3.191-1.387-6.107-3.887-8.053C84.57,66.66,81.1,61.939,81.1,61.939l-2.223-0.416
		l-10.969,7.219c-6.523,2.639-8.467,7.359-9.023,10.969"/>
	<path fill="#183651" d="M58.885,80.959h-0.139c-0.693-0.139-1.248-0.832-1.111-1.527c0.557-3.887,2.639-9.023,9.721-11.939
		l10.967-7.08c0.277-0.139,0.693-0.277,0.971-0.139l2.223,0.418c0.277,0,0.693,0.277,0.832,0.555c0,0,3.332,4.58,6.943,7.357
		c2.775,2.082,4.441,5.553,4.441,9.162v2.082c0,0.695-0.555,1.389-1.389,1.389c-0.693,0-1.389-0.555-1.389-1.389v-2.082
		c0-2.775-1.248-5.275-3.332-6.941c-3.193-2.498-6.107-6.107-7.08-7.357l-1.25-0.277l-10.551,6.941
		c-0.139,0-0.139,0.139-0.277,0.139c-4.859,1.943-7.496,5.275-8.191,9.857C60.135,80.543,59.58,80.959,58.885,80.959z"/>
	<path fill="#FBBD5E" d="M80.127,47.502l-5.275-3.055l-9.162,1.666l-0.973,2.221c0,0-3.748,9.719,2.082,18.742
		c1.527,2.361,4.582,3.055,7.08,1.805c2.084-1.111,4.582-3.193,7.357-6.941l2.777-4.164l0.416-5.277L80.127,47.502z"/>
	<path fill="#183651" d="M71.242,70.824L71.242,70.824c-2.361,0-4.443-1.109-5.693-3.055c-6.107-9.578-2.359-19.574-2.221-19.99
		l1.109-2.221c0.141-0.418,0.557-0.695,0.973-0.695l9.164-1.666c0.277,0,0.693,0,0.971,0.139l5.275,3.055
		c0.141,0.139,0.279,0.139,0.418,0.277l4.164,4.998c0.277,0.277,0.277,0.695,0.277,0.973l-0.416,5.275
		c0,0.277-0.139,0.416-0.277,0.693l-2.777,4.166c-2.498,3.33-5.137,5.83-7.912,7.357C73.463,70.547,72.352,70.824,71.242,70.824z
		 M65.965,48.889c0,0-3.469,9.164,1.943,17.494c0.695,1.109,1.945,1.805,3.334,1.805l0,0c0.693,0,1.387-0.139,1.943-0.557
		c2.359-1.248,4.721-3.471,6.941-6.523l2.5-3.75l0.277-4.303l-3.748-4.443l-4.584-2.637l-7.912,1.527L65.965,48.889z"/>
	<path fill="#E0E4E8" d="M64.717,48.334c0,0-1.527-2.775-0.418-4.303c1.111-1.527,13.885-5.971,19.576,1.248
		c5.693,7.219-2.637,16.66-2.637,16.66s4.303-6.248,0.971-7.357c0,0-1.525-0.695-2.775,1.943c0,0,0.971-8.191-4.027-8.469
		c0,0-2.082-1.25-6.387,2.221C69.16,50.416,67.355,47.361,64.717,48.334z"/>
	<path fill="#183651" d="M81.236,63.328c-0.277,0-0.553-0.139-0.832-0.277c-0.555-0.416-0.693-1.25-0.277-1.805
		c0.973-1.527,2.221-4.027,1.943-4.998c0-0.139,0-0.139-0.277-0.277h-0.139c-0.139,0-0.555,0.277-0.971,1.248
		c-0.279,0.557-0.973,0.973-1.668,0.695c-0.693-0.139-1.109-0.834-0.971-1.527c0.139-1.25,0.277-4.582-1.111-6.109
		c-0.416-0.416-0.971-0.693-1.527-0.693c-0.277,0-0.416-0.139-0.693-0.139c0,0-0.141,0-0.416,0c-0.695,0-2.084,0.277-4.443,2.221
		c-0.277,0.277-0.693,0.416-1.111,0.277c-0.416-0.139-0.693-0.277-0.971-0.693c0,0-1.25-1.943-2.777-1.527
		c-0.695,0.277-1.389,0-1.666-0.693c-0.139-0.418-1.805-3.611-0.277-5.693c1.111-1.527,6.525-3.332,11.246-3.332
		c4.58,0,8.189,1.527,10.412,4.443c6.248,8.051-2.361,18.049-2.777,18.465C81.932,63.189,81.516,63.328,81.236,63.328z
		 M82.627,53.332c0.555,0.139,0.971,0.416,1.387,0.832c0.832-2.637,0.832-5.553-1.109-8.051c-1.805-2.223-4.582-3.471-8.332-3.471
		c-4.441,0-8.467,1.666-9.162,2.221c-0.277,0.277-0.139,1.111,0.139,1.805c1.666-0.139,3.055,0.834,3.889,1.666
		c1.805-1.109,3.471-1.805,4.857-1.805c0.695,0,1.111,0.139,1.389,0.277c1.25,0.139,2.5,0.695,3.332,1.666
		c1.111,1.389,1.527,3.193,1.805,4.859C81.793,53.055,82.348,53.193,82.627,53.332z"/>
	<path fill="#FFFFFF" d="M11.682,69.574c3.75-2.914,7.221-7.635,7.221-7.635l2.221-0.416l10.967,7.219
		c11.801,4.859,8.748,15.967,8.748,15.967c-13.051,10.967-26.24,8.746-33.043,6.385V77.627C7.795,74.434,9.184,71.381,11.682,69.574
		z"/>
	<path fill="#183651" d="M19.041,94.426c-4.027,0-7.914-0.693-11.801-2.082c-0.557-0.139-0.973-0.693-0.973-1.248V77.627
		c0-3.609,1.666-6.941,4.443-9.162c3.471-2.777,6.803-7.219,6.941-7.357c0.139-0.277,0.555-0.416,0.832-0.557l2.223-0.416
		c0.416,0,0.693,0,0.971,0.141l10.969,7.078c12.633,5.275,9.441,17.494,9.441,17.494c-0.141,0.277-0.279,0.555-0.418,0.693
		C34.867,91.512,27.232,94.426,19.041,94.426z M9.184,90.123c3.332,1.109,6.664,1.527,9.996,1.527
		c7.357,0,14.299-2.639,20.547-7.775c0.416-1.943,1.25-10.135-8.053-14.021c-0.139,0-0.139-0.139-0.277-0.139l-10.551-6.941
		l-1.25,0.416c-0.973,1.25-3.887,4.998-7.08,7.357c-2.082,1.666-3.332,4.166-3.332,6.941V90.123z"/>
	<path fill="#16B49C" d="M41.115,79.711c-0.418-3.611-2.498-8.191-9.025-10.969l-10.967-7.219l-2.361,0.416
		c0,0-3.471,4.721-7.219,7.635c-2.498,1.945-3.887,4.859-3.887,8.053v2.084"/>
	<path fill="#183651" d="M41.115,80.959c-0.695,0-1.25-0.555-1.389-1.248c-0.557-4.582-3.332-7.914-8.191-9.857
		c-0.139,0-0.139-0.139-0.277-0.139l-10.551-6.941l-1.111,0.416c-0.973,1.25-3.887,4.998-7.08,7.357
		c-2.082,1.666-3.332,4.166-3.332,6.941v2.082c0,0.695-0.557,1.389-1.389,1.389c-0.834,0-1.389-0.555-1.389-1.389v-2.082
		c0-3.609,1.666-6.941,4.441-9.162c3.473-2.777,6.805-7.219,6.943-7.357c0.139-0.277,0.555-0.418,0.832-0.557l2.223-0.416
		c0.416,0,0.693,0,0.971,0.139l10.969,7.08c7.08,2.916,9.162,8.191,9.719,11.939c0.139,0.693-0.418,1.389-1.111,1.527
		C41.254,80.959,41.115,80.959,41.115,80.959z"/>
	<path fill="#FBBD5E" d="M35.283,48.334l-0.971-2.221l-9.164-1.666l-5.275,3.055l-4.164,4.996l0.416,5.277l2.777,4.164
		c2.775,3.748,5.414,5.691,7.357,6.941c2.498,1.389,5.555,0.557,7.08-1.805C39.033,58.053,35.283,48.334,35.283,48.334z"/>
	<path fill="#183651" d="M28.758,70.824L28.758,70.824c-1.109,0-2.221-0.277-3.191-0.832c-2.639-1.527-5.277-3.889-7.775-7.219
		l-2.777-4.166c-0.139-0.139-0.139-0.416-0.277-0.693l-0.416-5.275c0-0.416,0.139-0.693,0.277-0.973l4.164-4.998
		c0.141-0.139,0.279-0.277,0.418-0.277l5.275-3.055c0.277-0.139,0.555-0.277,0.971-0.139l9.164,1.666
		c0.416,0.139,0.832,0.416,0.971,0.695l0.973,2.221c0.139,0.555,4.027,10.551-2.082,20.131
		C33.201,69.715,31.119,70.824,28.758,70.824z M17.375,57.357l2.498,3.75c2.223,2.914,4.582,5.137,6.943,6.385
		c0.553,0.277,1.248,0.557,1.941,0.557c1.389,0,2.639-0.695,3.332-1.805c5.416-8.33,1.943-17.492,1.943-17.492l-0.693-1.527
		l-7.912-1.527l-4.582,2.637l-3.75,4.443L17.375,57.357z"/>
	<path fill="#E0E4E8" d="M35.283,48.334c0,0,1.527-2.775,0.416-4.303c-1.109-1.527-13.883-5.971-19.574,1.248
		s2.637,16.66,2.637,16.66s-4.303-6.248-0.971-7.357c0,0,1.527-0.695,2.777,1.943c0,0-0.973-8.191,4.025-8.469
		c0,0,2.082-1.25,6.387,2.221C30.842,50.416,32.646,47.361,35.283,48.334z"/>
	<path fill="#183651" d="M18.762,63.328c-0.416,0-0.693-0.139-0.971-0.416c-0.416-0.416-9.023-10.414-2.777-18.465
		c2.361-2.916,5.971-4.443,10.412-4.443c4.721,0,10.135,1.805,11.246,3.332c1.527,2.082-0.139,5.275-0.277,5.693
		c-0.277,0.555-0.973,0.832-1.666,0.693c-1.527-0.555-2.775,1.389-2.775,1.527c-0.141,0.277-0.557,0.555-0.973,0.693
		c-0.418,0-0.834,0-1.111-0.277c-3.332-2.777-4.859-2.082-4.859-2.082c-0.139,0.139-0.277,0.139-0.555,0.139
		c-0.695,0-1.111,0.277-1.527,0.693c-1.25,1.389-1.25,4.582-1.111,5.971c0,0.139,0,0.277,0,0.416c0,0.695-0.555,1.389-1.389,1.389
		l0,0c-0.555,0-0.971-0.277-1.248-0.832c-0.418-0.973-0.834-1.25-0.973-1.25c-0.277,0.139-0.416,0.139-0.416,0.277
		c-0.277,0.973,0.832,3.332,1.805,4.859c0.277,0.277,0.416,0.555,0.416,0.973C20.152,62.773,19.596,63.328,18.762,63.328
		L18.762,63.328z M25.566,42.643c-3.75,0-6.525,1.111-8.33,3.471c-1.945,2.498-1.945,5.553-1.111,8.051
		c0.416-0.416,0.834-0.693,1.389-0.832c0.277-0.139,0.832-0.277,1.805,0c0.139-1.666,0.555-3.471,1.805-4.859
		c0.832-0.971,1.943-1.527,3.332-1.666c0.277-0.139,0.832-0.277,1.387-0.277c1.527,0,3.193,0.695,5,1.945
		c0.832-0.834,2.082-1.807,3.887-1.666c0.277-0.695,0.416-1.527,0.139-1.945C34.033,44.309,30.008,42.643,25.566,42.643z"/>
	<path fill="#CECFD0" d="M37.367,8.627c-8.191,0-14.855,4.582-14.855,10.275c0,3.471,2.498,6.523,6.246,8.33l-1.389,7.496
		l8.471-5.553c0.555,0,1.109,0.139,1.666,0.139c8.189,0,14.854-4.582,14.854-10.273C52.359,13.209,45.695,8.627,37.367,8.627z"/>
	<path fill="#183651" d="M26.537,35.84c-0.416-0.279-0.695-0.832-0.555-1.389l1.25-6.525c-3.75-2.221-5.971-5.553-5.971-9.164
		c0-6.385,7.219-11.662,16.244-11.662c9.023,0,16.242,5.277,16.242,11.662c0,6.387-7.219,11.664-16.242,11.664
		c-0.416,0-0.834,0-1.25,0l-8.053,5.414C27.648,36.256,26.953,36.256,26.537,35.84z M37.367,9.879
		c-7.498,0-13.467,4.025-13.467,9.023c0,2.775,2.082,5.414,5.414,7.219c0.555,0.277,0.832,0.832,0.693,1.527l-0.832,4.303
		l5.691-3.748c0.277-0.139,0.555-0.277,0.832-0.277c0.557,0,0.973,0,1.527,0c7.498,0,13.467-4.025,13.467-9.023
		S44.863,9.879,37.367,9.879z"/>
	<ellipse fill="#FFFFFF" cx="37.367" cy="18.901" rx="10.412" ry="5.415"/>
	<path fill="#16B49C" d="M62.635,8.627c8.191,0,14.855,4.582,14.855,10.275c0,3.471-2.5,6.523-6.248,8.33l1.387,7.496l-8.467-5.553
		c-0.557,0-1.111,0.139-1.666,0.139c-8.191,0-14.855-4.582-14.855-10.273C47.641,13.209,54.305,8.627,62.635,8.627z"/>
	<path fill="#183651" d="M71.936,35.84l-8.053-5.414c-0.416,0-0.832,0-1.248,0c-8.887,0-16.244-5.277-16.244-11.664
		c0-6.385,7.219-11.66,16.244-11.66c9.023,0,16.242,5.275,16.242,11.66c0,3.611-2.221,6.943-5.969,9.164l1.248,6.525
		c0.141,0.557-0.139,1.109-0.555,1.389C73.047,36.256,72.352,36.256,71.936,35.84z M64.299,27.787c0.279,0,0.557,0.139,0.695,0.277
		l5.691,3.748l-0.832-4.303c-0.139-0.557,0.139-1.25,0.693-1.527c3.471-1.666,5.416-4.443,5.416-7.221
		c0-4.996-6.109-9.023-13.467-9.023c-7.498,0-13.469,4.027-13.469,9.023c0,4.998,6.109,9.025,13.469,9.025
		C63.051,27.926,63.605,27.787,64.299,27.787C64.162,27.787,64.162,27.787,64.299,27.787z"/>
	<ellipse fill="#FFFFFF" cx="62.635" cy="18.901" rx="10.412" ry="5.415"/>
	<g>
		<rect x="57.357" y="17.514" fill="#183651" width="2.777" height="2.775"/>
		<rect x="64.994" y="17.514" fill="#183651" width="2.777" height="2.775"/>
		<rect x="32.229" y="17.514" fill="#183651" width="2.777" height="2.775"/>
		<rect x="39.865" y="17.514" fill="#183651" width="2.777" height="2.775"/>
		<rect x="70.547" y="83.459" fill="#183651" width="2.777" height="2.775"/>
		<rect x="76.518" y="83.459" fill="#183651" width="2.775" height="2.775"/>
		<rect x="82.627" y="83.459" fill="#183651" width="2.775" height="2.775"/>
		<rect x="14.598" y="83.459" fill="#183651" width="2.777" height="2.775"/>
		<rect x="20.707" y="83.459" fill="#183651" width="2.775" height="2.775"/>
		<rect x="26.816" y="83.459" fill="#183651" width="2.775" height="2.775"/>
	</g>
</g>
</svg>
