<?xml version="1.0" encoding="utf-8"?>
<!-- Generator: Adobe Illustrator 16.0.0, SVG Export Plug-In . SVG Version: 6.00 Build 0)  -->
<!DOCTYPE svg PUBLIC "-//W3C//DTD SVG 1.1//EN" "http://www.w3.org/Graphics/SVG/1.1/DTD/svg11.dtd">
<svg version="1.1" id="Layer_1" xmlns="http://www.w3.org/2000/svg" xmlns:xlink="http://www.w3.org/1999/xlink" x="0px" y="0px"
	 width="100px" height="100px" viewBox="0 0 100 100" enable-background="new 0 0 100 100" xml:space="preserve">
<g>
	<g>
		<rect x="11.877" y="12.733" fill="#183651" width="2.857" height="2.861"/>
		<rect x="19.6" y="12.733" fill="#183651" width="2.861" height="2.861"/>
		<rect x="27.326" y="12.733" fill="#183651" width="2.861" height="2.861"/>
	</g>
	<path fill="#FFFFFF" d="M5.58,94.277h52.359c0-10.588-6.15-19.602-15.164-23.748c-2.576,2.289-6.008,4.005-10.586,4.005
		c-1.574,0-3.148-0.143-4.863-0.572c-1.861-0.285-4.291-1.287-6.582-3.29C11.73,74.676,5.58,83.833,5.58,94.277z"/>
	<path fill="#183651" d="M57.939,95.706H5.58c-0.859,0-1.43-0.572-1.43-1.429c0-10.588,6.295-20.458,15.879-25.036
		c0.572-0.285,1.145-0.143,1.574,0.287c2.574,2.289,5.148,2.86,5.865,3.003c6.008,1.288,10.729,0.287,14.307-3.003
		c0.428-0.43,1-0.43,1.572-0.287c9.729,4.578,16.023,14.306,16.023,25.036C59.371,95.134,58.799,95.706,57.939,95.706z
		 M7.012,92.847H56.51c-0.572-8.728-5.721-16.595-13.447-20.601c-4.148,3.433-9.729,4.578-16.023,3.146
		c-2.146-0.429-4.578-1.431-6.438-3.004C12.732,76.252,7.584,84.119,7.012,92.847z"/>
	<path fill="#16B49C" d="M12.162,88.555c1.287-4.578,4.148-8.584,8.152-11.158c1.861,1,3.863,1.859,5.867,2.145
		c2.002,0.43,4.148,0.716,6.008,0.716c4.006,0,7.869-1.001,11.016-2.86c4.004,2.718,6.867,6.723,8.154,11.301H12.162V88.555z"/>
	<path fill="#FBBD5E" d="M44.35,56.08c0,0-1.145,15.594-16.166,12.16c0,0-7.152-1.145-7.869-9.441L19.6,56.366L17.74,44.492
		l8.012-5.579l12.875-0.572l6.152,4.578v9.584L44.35,56.08z"/>
	<path fill="#183651" d="M32.189,70.243c-1.43,0-2.861-0.143-4.436-0.572c-2.717-0.43-8.154-3.147-9.014-10.587l-0.713-2.288v-0.143
		l-1.859-11.876c-0.145-0.571,0.143-1.144,0.57-1.429l8.012-5.58c0.287-0.144,0.43-0.286,0.715-0.286l12.875-0.571
		c0.287,0,0.717,0.143,0.859,0.286l6.152,4.577c0.43,0.285,0.572,0.715,0.572,1.145v9.584v0.145l-0.43,3.719
		C45.352,61.087,42.061,70.243,32.189,70.243z M20.887,56.225l0.717,2.288c0,0.143,0,0.143,0,0.286
		c0.715,7.152,6.438,8.152,6.723,8.152c1.432,0.287,2.719,0.43,3.863,0.43c9.727,0,10.729-10.871,10.729-11.443l0.43-3.72v-8.727
		l-5.15-3.863L26.182,40.2l-7.012,5.007L20.887,56.225z"/>
	<path fill="#E0E4E8" d="M19.457,56.51c0,0,0.572-2.289-2.145-3.862c0,0-5.15-13.448,7.152-17.453c0,0-0.859-1.001-0.717-2.575
		c0,0,1.717,1.145,10.445,0.572c0,0,5.723,0.572,7.295,5.149c0,0,8.869,0,4.863,13.877c0,0-2.145,1.289-2.002,3.862
		c0,0,1.859-15.021-5.723-13.304c0,0-6.867,3.29-11.586-1.288C27.039,41.488,18.027,41.059,19.457,56.51z"/>
	<g>
		<path fill="#183651" d="M19.457,57.94L19.457,57.94c-0.859,0-1.43-0.572-1.43-1.287c0-0.429-0.143-1.001-0.143-1.431
			c-0.289-0.572-0.717-1.002-1.432-1.431c-0.287-0.143-0.572-0.43-0.572-0.715c-0.145-0.287-2.574-7.011,0.143-12.733
			c1.287-2.575,3.434-4.577,6.438-5.865c-0.143-0.572-0.285-1.287-0.143-2.002c0-0.43,0.428-0.859,0.857-1.146
			c0.43-0.143,1.002-0.143,1.432,0.145l0,0c0,0,1.287,0.571,5.723,0.571c1.145,0,2.432,0,3.861-0.144h0.145
			c0.285,0,6.008,0.573,8.152,5.294c1.146,0.285,3.146,0.857,4.578,2.859c2.146,2.72,2.291,7.011,0.717,12.733
			c-0.145,0.43-0.287,0.717-0.717,0.859l0,0c0,0-0.857,0.571-1.143,1.573c0,0.715-0.143,1.287-0.143,1.287
			c-0.146,0.715-0.717,1.287-1.432,1.287c-0.717,0-1.289-0.572-1.432-1.287c0-0.572,0-1.145,0.143-1.574
			c0.287-4.721-0.285-8.439-1.717-9.871c-0.57-0.572-1.285-0.858-2.287-0.572c-0.717,0.285-3.004,1.287-5.723,1.287
			s-5.008-0.857-6.867-2.432c-0.715,0.144-2.004,0.429-3.291,1.717c-1.859,2.003-2.717,5.436-2.432,10.014
			c0.287,1.146,0.143,2.003,0.143,2.146C20.744,57.511,20.172,57.94,19.457,57.94z M25.609,34.479
			c0.143,0.286,0.143,0.716,0.143,1.001c-0.143,0.43-0.43,0.859-0.859,1.002c-3.004,1.001-5.15,2.719-6.152,5.007
			c-1.428,3.004-1,6.581-0.57,8.727c0.428-3.289,1.43-5.723,3.146-7.583c2.432-2.432,5.15-2.575,5.723-2.575h0.145
			c0.285,0,0.715,0.145,0.857,0.43c1.43,1.432,3.148,2.003,5.293,2.003c2.576,0,4.721-1.001,4.721-1.001
			c0.143,0,0.143-0.143,0.285-0.143c2.004-0.43,3.863,0.143,5.152,1.431c1.287,1.43,2.002,3.433,2.289,5.723
			c0.428-3.005,0.143-5.438-1.002-6.868c-1.287-1.716-3.291-1.859-3.291-1.859c-0.572,0-1.145-0.43-1.289-1.001
			c-1.143-3.434-5.291-4.149-6.008-4.149c-1.43,0-2.717,0.144-3.861,0.144C28.184,34.765,26.752,34.621,25.609,34.479z"/>
		<rect x="23.035" y="82.545" fill="#183651" width="2.859" height="2.861"/>
		<rect x="30.33" y="82.545" fill="#183651" width="2.861" height="2.861"/>
		<rect x="37.77" y="82.545" fill="#183651" width="2.859" height="2.861"/>
	</g>
	<path fill="#2EA0DA" d="M94.277,24.894c0-10.586-10.158-19.313-22.605-19.313c-12.445,0-22.602,8.585-22.602,19.313
		c0,6.438,3.719,12.159,9.441,15.593l0.715,13.591l15.164-10.014C85.549,42.919,94.277,34.765,94.277,24.894z"/>
	<path fill="#183651" d="M58.512,55.365c-0.43-0.286-0.715-0.715-0.859-1.145l-0.713-12.732c-6.01-3.863-9.443-10.013-9.443-16.452
		c0-11.443,10.729-20.742,24.033-20.742c13.307,0,24.178,9.154,24.178,20.6c0,10.443-9.014,19.17-20.887,20.456l-14.877,9.873
		C59.514,55.508,59.084,55.508,58.512,55.365z M71.672,7.012c-11.729,0-21.172,8.011-21.172,17.882
		c0,5.723,3.293,11.016,8.727,14.448c0.43,0.286,0.717,0.715,0.717,1.145l0.572,11.017l13.018-8.727
		c0.143-0.145,0.43-0.145,0.715-0.287c10.588-1.001,18.742-8.726,18.742-17.738C92.846,15.022,83.404,7.012,71.672,7.012z"/>
	<path fill="#FFFFFF" d="M63.947,37.197l-2.574-1.574c-4.291-2.574-6.725-6.58-6.725-10.729c0-7.438,7.582-13.591,16.881-13.591
		c9.301,0,17.023,6.009,17.023,13.591c0,6.867-6.293,12.589-14.877,13.447l-1.43,0.144l-8.012,5.292L63.947,37.197z"/>
	<g>
		<circle fill="#E0E4E8" cx="80.4" cy="23.893" r="2.433"/>
		<circle fill="#E0E4E8" cx="71.672" cy="23.893" r="2.433"/>
		<circle fill="#E0E4E8" cx="62.947" cy="23.893" r="2.433"/>
		<polygon fill="#E0E4E8" points="74.391,56.653 64.52,66.666 64.52,94.277 94.277,94.277 94.277,56.653 		"/>
	</g>
	<path fill="#183651" d="M94.277,95.706H64.52c-0.857,0-1.43-0.572-1.43-1.429V66.666c0-0.43,0.143-0.715,0.428-1.001l10.016-10.013
		c0.285-0.287,0.572-0.43,1.002-0.43h19.883c0.859,0,1.432,0.572,1.432,1.431v37.624C95.707,95.134,95.135,95.706,94.277,95.706z
		 M65.951,92.847h26.895V58.083H75.107l-9.156,9.155V92.847L65.951,92.847z"/>
	<g>
		<polygon fill="#16B49C" points="70.242,88.555 70.242,66.666 74.391,62.375 88.553,62.375 88.553,88.555 		"/>
		<polygon fill="#FFFFFF" points="74.391,66.666 74.391,56.653 64.52,66.666 		"/>
	</g>
	<g>
		<path fill="#183651" d="M74.391,68.098H64.377c-0.572,0-1.145-0.287-1.287-0.859c-0.285-0.572-0.143-1.145,0.285-1.573
			l10.016-10.013c0.428-0.43,1-0.574,1.574-0.287c0.572,0.287,0.857,0.715,0.857,1.287v10.014
			C75.822,67.381,75.25,68.098,74.391,68.098z M67.953,65.235h5.15v-5.149L67.953,65.235z"/>
		<rect x="78.826" y="66.523" fill="#183651" width="6.438" height="2.861"/>
		<rect x="73.391" y="73.962" fill="#183651" width="11.873" height="2.862"/>
		<rect x="73.391" y="81.544" fill="#183651" width="11.873" height="2.862"/>
	</g>
</g>
</svg>
