<?xml version="1.0" encoding="utf-8"?>
<!-- Generator: Adobe Illustrator 16.0.0, SVG Export Plug-In . SVG Version: 6.00 Build 0)  -->
<!DOCTYPE svg PUBLIC "-//W3C//DTD SVG 1.1//EN" "http://www.w3.org/Graphics/SVG/1.1/DTD/svg11.dtd">
<svg version="1.1" id="Layer_1" xmlns="http://www.w3.org/2000/svg" xmlns:xlink="http://www.w3.org/1999/xlink" x="0px" y="0px"
	 width="100px" height="100px" viewBox="0 0 100 100" enable-background="new 0 0 100 100" xml:space="preserve">
<g>
	<circle fill="#F06151" cx="44.084" cy="55.781" r="39.34"/>
	<path fill="#E0E4E8" d="M41.262,21.799c21.012-1.691,38.355,15.793,36.664,36.662C76.654,74.959,63.26,88.354,46.762,89.625
		C25.752,91.316,8.408,73.83,10.1,52.963C11.51,36.465,24.764,23.068,41.262,21.799z"/>
	<path fill="#183651" d="M44.084,91.176c-19.461,0-35.395-15.934-35.395-35.393s15.934-35.395,35.395-35.395
		c19.457,0,35.391,15.936,35.391,35.395c0,9.447-3.666,18.33-10.434,25.098C62.412,87.508,53.531,91.176,44.084,91.176z
		 M44.084,23.068c-18.051,0-32.717,14.666-32.717,32.715c0,18.047,14.666,32.713,32.717,32.713c8.74,0,16.92-3.385,23.123-9.588
		c6.207-6.207,9.59-14.383,9.59-23.125C76.797,37.734,62.131,23.068,44.084,23.068z"/>
	<g>
		<path fill="#FFFFFF" d="M44.084,84.406c-15.795,0-28.625-12.83-28.625-28.625c0-15.791,12.83-28.623,28.625-28.623
			c15.791,0,28.623,12.832,28.623,28.623C72.707,71.576,59.875,84.406,44.084,84.406z"/>
		<path fill="#FFFFFF" d="M50.287,14.748v7.615c-1.975-0.424-4.088-0.564-6.203-0.564c-2.117,0-4.23,0.141-6.346,0.564v-7.615
			H50.287z"/>
	</g>
	<path fill="#183651" d="M51.697,23.914l-1.551-0.281c-3.807-0.705-8.037-0.705-11.986,0l-1.691,0.281V13.34h15.229V23.914z
		 M39.148,16.018v4.654c3.385-0.424,6.768-0.424,9.869,0v-4.654H39.148z"/>
	<rect x="33.65" y="6.289" fill="#FFFFFF" width="20.727" height="8.461"/>
	<path fill="#183651" d="M55.785,16.018H32.379V4.879h23.406V16.018L55.785,16.018z M35.059,13.34h18.049V7.559H35.059V13.34z"/>
	
		<rect x="31.228" y="74.134" transform="matrix(0.866 0.5001 -0.5001 0.866 42.2819 -6.1243)" fill="#183651" width="2.679" height="3.384"/>
	
		<rect x="54.246" y="34.033" transform="matrix(0.866 0.5001 -0.5001 0.866 25.3139 -23.0087)" fill="#183651" width="2.679" height="3.385"/>
	<rect x="42.674" y="77.215" fill="#183651" width="2.678" height="3.385"/>
	<rect x="42.674" y="30.965" fill="#183651" width="2.678" height="3.385"/>
	
		<rect x="53.985" y="74.419" transform="matrix(0.5 0.866 -0.866 0.5 93.4477 -10.3381)" fill="#183651" width="3.383" height="2.678"/>
	
		<rect x="30.902" y="34.371" transform="matrix(0.4997 0.8662 -0.8662 0.4997 47.2361 -10.369)" fill="#183651" width="3.385" height="2.677"/>
	
		<rect x="22.399" y="42.807" transform="matrix(0.8662 0.4997 -0.4997 0.8662 25.2857 -6.1313)" fill="#183651" width="3.385" height="2.679"/>
	<rect x="65.516" y="54.371" fill="#183651" width="3.385" height="2.68"/>
	<rect x="19.266" y="54.371" fill="#183651" width="3.385" height="2.68"/>
	
		<rect x="62.723" y="42.473" transform="matrix(0.5001 0.866 -0.866 0.5001 70.2732 -33.3981)" fill="#183651" width="2.679" height="3.383"/>
	
		<rect x="22.746" y="65.676" transform="matrix(0.4998 0.8661 -0.8661 0.4998 70.3954 12.836)" fill="#183651" width="2.677" height="3.385"/>
	<path fill="#FFFFFF" d="M46.904,51.553c3.102,2.115,3.102,6.486,0,8.602c-1.693,1.127-3.949,1.127-5.643,0
		c-3.102-2.115-3.102-6.486,0-8.602C42.955,50.283,45.211,50.283,46.904,51.553z"/>
	<path fill="#183651" d="M44.084,62.27c-1.693,0-3.387-0.707-4.512-1.834c-2.537-2.539-2.537-6.627,0-9.166
		c1.268-1.268,2.818-1.832,4.512-1.832c1.691,0,3.383,0.705,4.51,1.832c2.539,2.539,2.539,6.627,0,9.166
		C47.467,61.563,45.775,62.27,44.084,62.27z M44.084,51.977c-0.988,0-1.975,0.422-2.68,1.127c-1.41,1.41-1.41,3.807,0,5.357
		c1.41,1.41,3.947,1.41,5.357,0s1.41-3.807,0-5.357C46.057,52.398,45.07,51.977,44.084,51.977z"/>
	<rect x="42.674" y="38.297" fill="#183651" width="2.678" height="12.408"/>
	<rect x="49.158" y="54.371" fill="#183651" width="8.604" height="2.68"/>
	<path fill="#16B49C" d="M93.436,71.715c1.691,10.576-7.191,19.602-17.768,17.768c-6.346-0.986-11.563-6.203-12.551-12.549
		c-1.834-10.436,7.191-19.459,17.77-17.768C87.23,60.295,92.307,65.371,93.436,71.715z"/>
	<path fill="#183651" d="M78.207,91.176c-9.307,0-16.781-7.473-16.781-16.781c0-9.305,7.475-16.779,16.781-16.779
		c9.305,0,16.779,7.475,16.779,16.779C94.986,83.703,87.512,91.176,78.207,91.176z M78.207,60.295
		c-7.756,0-14.102,6.344-14.102,14.1s6.346,14.102,14.102,14.102c7.754,0,14.1-6.346,14.1-14.102S85.961,60.295,78.207,60.295z"/>
	<path fill="#183651" d="M76.771,81.609c0.563,0,1.104-0.225,1.5-0.623L95.258,64l-3.002-3L76.771,76.482l-4.867-4.867L68.9,74.617
		l6.371,6.369C75.668,81.385,76.209,81.609,76.771,81.609L76.771,81.609z"/>
</g>
</svg>
