<?xml version="1.0" encoding="utf-8"?>
<!-- Generator: Adobe Illustrator 16.0.0, SVG Export Plug-In . SVG Version: 6.00 Build 0)  -->
<!DOCTYPE svg PUBLIC "-//W3C//DTD SVG 1.1//EN" "http://www.w3.org/Graphics/SVG/1.1/DTD/svg11.dtd">
<svg version="1.1" id="Layer_1" xmlns="http://www.w3.org/2000/svg" xmlns:xlink="http://www.w3.org/1999/xlink" x="0px" y="0px"
	 width="100px" height="100px" viewBox="0 0 100 100" enable-background="new 0 0 100 100" xml:space="preserve">
<g>
	<circle fill="#E0E4E8" cx="50" cy="50" r="44.88"/>
	<rect x="32.471" y="6.522" fill="#FBBD5E" width="34.922" height="19.915"/>
	<path fill="#183651" d="M67.531,27.841H32.471c-0.842,0-1.402-0.563-1.402-1.403V6.522c0-0.841,0.561-1.402,1.402-1.402h35.061
		c0.842,0,1.402,0.562,1.402,1.402v19.915C68.934,27.278,68.23,27.841,67.531,27.841z M33.871,25.036h32.258V7.925H33.871V25.036z"
		/>
	<rect x="38.08" y="12.132" fill="#FFFFFF" width="23.701" height="8.837"/>
	<rect x="32.471" y="39.902" fill="#16B49C" width="34.922" height="19.915"/>
	<path fill="#183651" d="M67.531,61.36H32.471c-0.842,0-1.402-0.562-1.402-1.402V39.902c0-0.842,0.561-1.402,1.402-1.402h35.061
		c0.842,0,1.402,0.561,1.402,1.402v19.915C68.934,60.659,68.23,61.36,67.531,61.36z M33.871,58.556h32.258V41.305H33.871V58.556z"/>
	<rect x="38.08" y="45.512" fill="#FFFFFF" width="23.701" height="8.836"/>
	<rect x="32.471" y="73.563" fill="#F06151" width="34.922" height="19.915"/>
	<path fill="#183651" d="M67.531,94.88H32.471c-0.842,0-1.402-0.563-1.402-1.402V73.563c0-0.841,0.561-1.402,1.402-1.402h35.061
		c0.842,0,1.402,0.562,1.402,1.402v19.915C68.934,94.317,68.23,94.88,67.531,94.88z M33.871,92.075h32.258V74.964H33.871V92.075z"/>
	<rect x="38.08" y="79.032" fill="#FFFFFF" width="23.701" height="8.835"/>
	<g>
		<path fill="#183651" d="M18.582,22.09c-0.42-0.56-0.42-1.542,0.283-1.964l4.486-3.506l-4.486-3.507
			c-0.563-0.42-0.703-1.401-0.283-1.962c0.422-0.563,1.406-0.702,1.965-0.281l5.891,4.629C26.859,15.639,27,16.06,27,16.48
			c0,0.42-0.141,0.841-0.42,1.122l-5.893,4.628C19.988,22.791,19.145,22.651,18.582,22.09z"/>
		<path fill="#183651" d="M25.598,17.883H6.523c-0.84,0-1.404-0.562-1.404-1.402c0-0.842,0.564-1.403,1.404-1.403h19.074
			c0.84,0,1.4,0.562,1.4,1.403C26.998,17.321,26.438,17.883,25.598,17.883z"/>
		<path fill="#183651" d="M79.453,55.75l-5.891-4.628C73.281,50.843,73,50.421,73,49.999c0-0.42,0.143-0.84,0.563-1.121l5.891-4.629
			c0.559-0.421,1.543-0.421,1.965,0.28c0.418,0.563,0.418,1.544-0.283,1.964l-4.488,3.506l4.488,3.507
			c0.563,0.421,0.701,1.402,0.283,1.963C80.855,56.03,80.012,56.172,79.453,55.75z"/>
		<path fill="#183651" d="M93.479,51.402H74.404c-0.842,0-1.404-0.562-1.404-1.403c0-0.84,0.563-1.401,1.404-1.401h17.672V17.883
			H76.367c-0.842,0-1.402-0.562-1.402-1.402c0-0.842,0.561-1.403,1.402-1.403h17.111c0.84,0,1.402,0.562,1.402,1.403v33.379
			C94.881,50.7,94.178,51.402,93.479,51.402z"/>
		<path fill="#183651" d="M18.582,88.988c-0.42-0.559-0.42-1.541,0.283-1.962l4.486-3.505l-4.486-3.509
			c-0.563-0.42-0.703-1.402-0.283-1.961c0.422-0.563,1.406-0.702,1.965-0.281l5.891,4.627C26.719,82.678,27,83.099,27,83.521
			c0,0.419-0.141,0.841-0.563,1.121l-5.891,4.63C19.988,89.69,19.145,89.551,18.582,88.988z"/>
		<path fill="#183651" d="M25.598,84.781H6.523c-0.84,0-1.404-0.56-1.404-1.402v-33.38c0-0.84,0.564-1.401,1.404-1.401h17.109
			c0.844,0,1.402,0.562,1.402,1.401c0,0.844-0.559,1.403-1.402,1.403H7.926v30.574h17.672c0.84,0,1.4,0.563,1.4,1.403
			C26.998,84.222,26.438,84.781,25.598,84.781z"/>
		<rect x="41.865" y="15.077" fill="#183651" width="2.805" height="2.806"/>
		<rect x="48.598" y="15.077" fill="#183651" width="2.805" height="2.806"/>
		<rect x="55.33" y="15.077" fill="#183651" width="2.805" height="2.806"/>
		<rect x="41.865" y="48.598" fill="#183651" width="2.805" height="2.805"/>
		<rect x="48.598" y="48.598" fill="#183651" width="2.805" height="2.805"/>
		<rect x="55.33" y="48.598" fill="#183651" width="2.805" height="2.805"/>
		<rect x="41.865" y="82.116" fill="#183651" width="2.805" height="2.808"/>
		<rect x="48.598" y="82.116" fill="#183651" width="2.805" height="2.808"/>
		<rect x="55.33" y="82.116" fill="#183651" width="2.805" height="2.808"/>
	</g>
</g>
</svg>
