<?xml version="1.0" encoding="utf-8"?>
<!-- Generator: Adobe Illustrator 16.0.0, SVG Export Plug-In . SVG Version: 6.00 Build 0)  -->
<!DOCTYPE svg PUBLIC "-//W3C//DTD SVG 1.1//EN" "http://www.w3.org/Graphics/SVG/1.1/DTD/svg11.dtd">
<svg version="1.1" id="Layer_1" xmlns="http://www.w3.org/2000/svg" xmlns:xlink="http://www.w3.org/1999/xlink" x="0px" y="0px"
	 width="38px" height="38px" viewBox="0 0 38 38" enable-background="new 0 0 38 38" xml:space="preserve">
<rect x="-20" y="-20" display="none" fill="#2D2D2D" width="78" height="78"/>
<path fill="#FFFFFF" d="M21.577,33.184c7.591-1.299,13.384-7.79,13.384-15.78l-0.1,0.199c0.2-1.498,0.2-2.896-0.1-3.995
	c-0.1,0.899-0.2,1.398-0.399,1.599c0-0.1,0-0.999-0.299-2.197c-0.1-0.899-0.3-1.799-0.6-2.598c0.1,0.399,0.1,0.699,0.1,0.999
	c-1.199-3.096-3.995-6.991-11.086-6.892c0,0,2.497,0.3,3.596,1.998c0,0-1.199-0.3-2.098,0.199c1.099,0.399,2.098,0.898,2.896,1.398
	h0.1c0.199,0.1,0.399,0.3,0.599,0.399c1.498,1.099,2.896,2.597,2.796,4.495c-0.399-0.6-0.799-0.999-1.398-1.1
	c0.699,2.697,0.699,4.895,0.199,6.593c-0.399-1.199-0.699-1.798-0.999-2.098c0.399,3.596-0.1,6.192-1.698,7.89
	c0.299-0.999,0.399-1.897,0.399-2.597c-1.898,2.797-3.995,4.295-6.393,4.395c-0.898,0-1.797-0.1-2.696-0.399
	c-1.199-0.399-2.297-1.099-3.296-2.097c1.498,0.1,2.996-0.101,4.195-0.8l1.998-1.298l0,0c0.3-0.101,0.5-0.101,0.799,0
	c0.5-0.101,0.699-0.3,0.5-0.8c-0.2-0.299-0.599-0.599-1.099-0.898c-0.999-0.5-2.098-0.399-3.196,0.3
	c-1.099,0.599-2.098,0.599-3.097-0.1c-0.599-0.399-1.298-0.999-1.897-1.799l-0.2-0.399c-0.1,0.899,0,1.898,0.399,3.297l0,0l0,0
	c-0.399-1.299-0.5-2.397-0.399-3.297l0,0c0-0.698,0.299-1.197,0.899-1.197h-0.2h0.3c0.699,0.1,1.398,0.199,2.297,0.499
	c0.1-0.8,0-1.698-0.599-2.597l0,0c0.799-0.8,1.498-1.299,2.097-1.599c0.3-0.1,0.399-0.399,0.5-0.699l0,0l0,0l0,0
	c0.2-0.399,0.1-0.599-0.1-0.799c-0.6,0-1.099,0-1.698-0.1l0,0c-0.2-0.101-0.5-0.3-0.899-0.6l-0.899-0.898l-0.299-0.2l0,0l0,0l0,0
	l-0.1-0.1l0.1-0.1c0.1-0.699,0.299-1.299,0.599-1.798l0.1-0.1c0.299-0.5,0.898-0.999,1.698-1.599
	c-1.598,0.2-2.996,0.898-4.295,2.098c-0.999-0.3-2.297-0.2-3.695,0.399l-0.2,0.1l0,0l0.2-0.1l0,0
	C7.395,8.015,6.795,6.815,6.496,4.818c-1.198,1.099-1.698,3.196-1.698,6.093l-0.3,0.499l-0.1,0.101l0,0l0,0l0,0
	c-0.2,0.299-0.399,0.698-0.699,1.198C3.3,13.508,3.1,14.107,3.1,14.706l0,0l0,0v0.2l0,0c0,0.1,0,0.3,0,0.399l0.898-0.699
	c-0.299,0.898-0.599,1.798-0.699,2.696v0.399L3,17.403c0,3.396,1.099,6.592,2.896,9.188l0.1,0.1l0.1,0.1
	c1.298,1.798,2.996,3.296,4.994,4.495c1.398,0.799,2.896,1.398,4.495,1.797l0.3,0.101c0.299,0.1,0.699,0.1,0.999,0.2
	c0.3,0,0.5,0.1,0.799,0.1h0.299h0.5h0.5h0.399h0.699c0.399,0,0.799-0.1,1.198-0.1C21.277,33.184,21.577,33.184,21.577,33.184z
	 M31.665,13.708v0.1V13.708L31.665,13.708z"/>
</svg>
