<svg xmlns="http://www.w3.org/2000/svg" x="0px" y="0px" width="38px" height="38px" viewBox="0 0 38 38" enable-background="new 0 0 38 38" xml:space="preserve">
<g>
	<path fill="#231f20" d="M24.105,18.668c1.537-1.061,2.613-2.803,2.613-4.418c0-3.578-2.771-6.334-6.333-6.334H10.49v22.168h11.146
		c3.309,0,5.874-2.693,5.874-6.002C27.51,21.676,26.15,19.619,24.105,18.668z M15.24,11.875h4.75c1.314,0,2.375,1.061,2.375,2.375
		s-1.061,2.375-2.375,2.375h-4.75V11.875z M20.781,26.125H15.24v-4.75h5.542c1.314,0,2.375,1.061,2.375,2.375
		S22.096,26.125,20.781,26.125z"/>
</g>
</svg>
