<svg xmlns="http://www.w3.org/2000/svg" width="38" height="38"><path d="M35.285 14.263h-2.273a14.71 14.71 0 0 0-.758-1.815l1.612-1.613c.67-.668.67-1.754 0-2.424l-4.28-4.28c-.662-.663-1.75-.663-2.42.007l-1.61 1.612a14.5 14.5 0 0 0-1.817-.759V2.706C23.737 1.768 22.97 1 22.032 1h-6.055c-.947 0-1.715.768-1.715 1.715v2.273a14.64 14.64 0 0 0-1.816.759L10.828 4.13a1.71 1.71 0 0 0-2.413 0L4.135 8.4c-.67.67-.67 1.754.001 2.424l1.61 1.612c-.29.585-.546 1.2-.76 1.816H2.706C1.768 14.264 1 15.03 1 15.97v6.054c0 .947.768 1.713 1.715 1.713h2.273c.213.627.468 1.232.76 1.818L4.13 27.172a1.71 1.71 0 0 0 0 2.413l4.28 4.28c.67.67 1.757.668 2.426-.001l1.612-1.612c.585.29 1.19.546 1.815.758v2.273c0 .947.768 1.715 1.715 1.715h6.055c.937 0 1.705-.768 1.705-1.715V33.01c.626-.212 1.23-.468 1.816-.758l1.61 1.612c.67.67 1.756.67 2.426 0l4.28-4.28c.663-.663.663-1.75-.007-2.418l-1.61-1.612c.29-.585.546-1.2.76-1.817h2.274c.946 0 1.714-.767 1.714-1.714V15.97c.001-.938-.767-1.706-1.714-1.706zM19 29.224c-5.64 0-10.224-4.586-10.224-10.224S13.36 8.776 19 8.776 29.224 13.362 29.224 19 24.64 29.224 19 29.224z" fill="#231f20"/></svg>