<svg xmlns="http://www.w3.org/2000/svg" x="0px" y="0px" width="38px" height="38px" viewBox="0 0 38 38" enable-background="new 0 0 38 38" xml:space="preserve">
<path fill="#666666" d="M19,3.167C10.261,3.167,3.167,10.261,3.167,19S10.261,34.833,19,34.833S34.833,27.739,34.833,19
	S27.739,3.167,19,3.167z M20.583,30.083h-3.166v-3.166h3.166V30.083z M23.861,17.813l-1.426,1.457
	c-1.14,1.156-1.853,2.105-1.853,4.48h-3.166v-0.792c0-1.74,0.713-3.324,1.853-4.48l1.963-1.995c0.585-0.57,0.935-1.362,0.935-2.232
	c0-1.741-1.426-3.167-3.167-3.167s-3.167,1.426-3.167,3.167h-3.166c0-3.499,2.834-6.333,6.333-6.333s6.333,2.834,6.333,6.333
	C25.333,15.644,24.765,16.909,23.861,17.813z"/>
</svg>
