<svg xmlns="http://www.w3.org/2000/svg" width="38px" height="38px" viewBox="0 0 38 38" enable-background="new 0 0 38 38" xml:space="preserve">
<rect x="-20" y="-20" display="none" fill="#2D2D2D" width="78" height="78"/>
<path fill="#FFFFFF" d="M19.008,10.75c4.139,0,7.5,3.361,7.5,7.501c0,0.975-0.195,1.889-0.539,2.745l4.379,4.379
	c2.266-1.889,4.049-4.335,5.146-7.124C32.896,11.665,26.493,7,18.992,7c-2.1,0-4.11,0.374-5.97,1.05l3.241,3.24
	C17.118,10.944,18.032,10.75,19.008,10.75z M4.007,6.655l3.419,3.42l0.691,0.689c-2.49,1.935-4.44,4.516-5.611,7.486
	c2.596,6.585,9,11.25,16.501,11.25c2.324,0,4.543-0.45,6.569-1.261l0.63,0.63l4.396,4.379l1.905-1.903L5.913,4.75L4.007,6.655z
	 M12.302,14.949l2.326,2.326c-0.076,0.315-0.12,0.645-0.12,0.976c0,2.49,2.009,4.5,4.5,4.5c0.33,0,0.659-0.046,0.975-0.121
	l2.325,2.325c-1.006,0.495-2.115,0.795-3.3,0.795c-4.14,0-7.501-3.36-7.501-7.5C11.507,17.065,11.808,15.954,12.302,14.949z
	 M18.767,13.78l4.726,4.725l0.03-0.24c0-2.49-2.01-4.5-4.5-4.5L18.767,13.78z"/>
</svg>
