<svg xmlns="http://www.w3.org/2000/svg" x="0px" y="0px" width="38px" height="38px" viewBox="0 0 38 38" enable-background="new 0 0 38 38" xml:space="preserve">
<g>
	<path fill="#FFFFFF" d="M6.175,19c0-2.707,2.201-4.908,4.909-4.908h6.333v-3.009h-6.333c-4.37,0-7.917,3.548-7.917,7.917
		s3.547,7.917,7.917,7.917h6.333v-3.009h-6.333C8.376,23.908,6.175,21.707,6.175,19z M12.667,20.583h12.667v-3.166H12.667V20.583z
		 M26.917,11.083h-6.333v3.009h6.333c2.708,0,4.908,2.201,4.908,4.908s-2.2,4.908-4.908,4.908h-6.333v3.009h6.333
		c4.37,0,7.917-3.548,7.917-7.917S31.286,11.083,26.917,11.083z"/>
</g>
</svg>
