<svg xmlns="http://www.w3.org/2000/svg" width="38px" height="38px" viewBox="0 0 38 38" enable-background="new 0 0 38 38" xml:space="preserve">
<rect x="-20" y="-20" display="none" fill="#2D2D2D" width="78" height="78"/>
<path fill="#FFFFFF" d="M18.982,1C9.047,1,1,9.063,1,19c0,9.935,8.047,18,17.982,18C28.936,37,37,28.935,37,19
	C37,9.063,28.936,1,18.982,1z M31.456,11.8h-5.309c-0.577-2.25-1.406-4.41-2.485-6.408C26.974,6.525,29.728,8.831,31.456,11.8z
	 M19,4.672c1.494,2.161,2.665,4.554,3.438,7.128h-6.877C16.335,9.226,17.506,6.833,19,4.672z M5.067,22.6
	C4.779,21.447,4.6,20.241,4.6,19c0-1.242,0.18-2.448,0.468-3.6h6.086C11.009,16.588,10.9,17.775,10.9,19
	c0,1.224,0.108,2.412,0.253,3.6H5.067z M6.544,26.2h5.309c0.577,2.25,1.406,4.41,2.485,6.409C11.026,31.474,8.272,29.188,6.544,26.2
	z M11.853,11.8H6.544c1.729-2.988,4.482-5.274,7.794-6.408C13.259,7.39,12.43,9.55,11.853,11.8z M19,33.328
	c-1.494-2.161-2.665-4.555-3.438-7.128h6.877C21.665,28.773,20.494,31.167,19,33.328z M23.212,22.6h-8.424
	C14.627,21.412,14.5,20.224,14.5,19c0-1.225,0.127-2.431,0.288-3.6h8.424c0.161,1.169,0.288,2.375,0.288,3.6
	C23.5,20.224,23.373,21.412,23.212,22.6z M23.662,32.609c1.079-1.999,1.908-4.159,2.485-6.409h5.309
	C29.728,29.171,26.974,31.474,23.662,32.609z M26.847,22.6c0.145-1.188,0.253-2.376,0.253-3.6c0-1.225-0.108-2.412-0.253-3.6h6.086
	c0.288,1.152,0.468,2.358,0.468,3.6c0,1.241-0.18,2.447-0.468,3.6H26.847z"/>
</svg>
