<svg xmlns="http://www.w3.org/2000/svg" x="0px" y="0px" width="600px" height="600px" viewBox="0 0 600 600" enable-background="new 0 0 600 600" xml:space="preserve">
<g>
	<g>
		<g>
			<path fill="#666666" d="M478.938,76.225c-42.065-18.843-93.36-8.845-128.45,25.528c-26.574,26.005-52.723,52.488-79.024,78.746
				c-1.183,1.172-2.098,2.563-3.623,4.486c25.698-4.906,48.383-0.526,70.555,12.068l0,0c9.482,34.542,41.515,59.448,79.072,59.448
				c2.729,0,5.422-0.13,8.064-0.387c-17.939,18.003-35.933,35.947-53.902,53.896c-9.668,9.631-21.479,15.531-35.117,17.03
				c-16.127,1.794-30.205-2.522-42.365-13.823c-12.382-11.607-31.129-10.754-42.115,1.098c-11.38,12.213-10.942,30.088,1.718,41.92
				c6.492,6.076,13.71,11.824,21.41,16.228c43.609,25.125,99.566,16.663,137.795-20.878c31.289-30.657,62.389-61.511,93.242-92.666
				c6.766-6.792,12.879-14.539,17.994-22.727C560.617,177.607,539.5,103.386,478.938,76.225z"/>
			<g>
				<path fill="#666666" d="M346.479,418.463c1.154-1.135,2.134-2.489,3.229-3.771c-25.596,5.38-49.146,1.531-71.834-11.316
					c-1.471,1.39-3.217,2.967-4.888,4.578c-3.529,3.55-7.038,7.102-10.575,10.693l30.669,53.066
					C310.881,453.989,328.695,436.227,346.479,418.463z"/>
				<path fill="#666666" d="M192,343.191l-30.74-53.125c-5.521,5.473-10.994,11.042-16.503,16.578l30.703,53.14
					C180.974,354.218,186.49,348.689,192,343.191z"/>
				<path fill="#666666" d="M228.715,451.827l30.504,52.813c2.83-2.304,5.582-4.76,8.236-7.396c2.888-2.818,5.755-5.713,8.632-8.646
					l-30.594-52.891C239.979,441.208,234.406,446.628,228.715,451.827z"/>
			</g>
			<g>
				<path fill="#666666" d="M363.949,244.704c-8.269-7.601-17.504-14.687-27.441-19.813
					c-43.418-22.306-96.875-12.233-134.426,24.777c-7.941,7.824-15.832,15.693-23.744,23.536l30.617,52.919
					c10.895-10.946,21.79-21.85,32.707-32.777c25.858-25.897,53.986-27.508,82.627-4.981c12.652,9.928,30.531,8.438,41.063-3.351
					C375.844,273.145,375.844,255.657,363.949,244.704z"/>
				<path fill="#666666" d="M210.021,465.927c-3.51,1.98-7.097,3.854-10.777,5.161c-28.433,10.334-58.267-6.223-64.216-35.086
					c-4.436-21.536,3.733-39.41,18.888-54.568c1.512-1.576,3.047-3.078,4.596-4.651l-30.692-53.069
					c-5.403,5.479-10.854,10.883-16.236,16.374c-8.336,8.533-15.889,18.351-21.758,28.752
					c-6.592,11.688-10.905,23.879-13.203,36.188c-0.026-0.07,0.267-1.104,0.228-1.177c0,0.22-0.301,1.434-0.301,1.646
					c-5.256,28.975,1.108,58.276,17.087,81.529l-0.897,2.42l-49.264,40.766l89.842-8.604c1.717,0.912,3.476,1.759,5.269,2.487
					c32.454,14.211,69.834,11.433,101.468-6.224L210.021,465.927z"/>
			</g>
		</g>
		<path fill="#666666" d="M21.463,82.085c0,0,181.489,3.663,194.534,175.056C215.998,257.141,50.078,278.911,21.463,82.085z"/>
		<path fill="#666666" d="M384.021,354.805c0,0,181.446,3.627,194.516,175C578.535,529.805,412.598,551.599,384.021,354.805z"/>
	</g>
</g>
</svg>
