<svg xmlns="http://www.w3.org/2000/svg" x="0px" y="0px" width="600px" height="600px" viewBox="6 96 600 600" enable-background="new 6 96 600 600" xml:space="preserve">
<g>
	<g>
		<g>
			<path fill="#F96302" d="M484.938,168.226c-42.065-18.843-93.36-8.845-128.45,25.528c-26.575,26.005-52.723,52.488-79.024,78.746
				c-1.183,1.172-2.098,2.563-3.623,4.486c25.698-4.906,48.384-0.526,70.555,12.068l0,0c9.482,34.542,41.514,59.448,79.072,59.448
				c2.729,0,5.422-0.13,8.064-0.387c-17.938,18.003-35.932,35.947-53.901,53.896c-9.669,9.63-21.481,15.531-35.118,17.03
				c-16.127,1.794-30.204-2.523-42.365-13.823c-12.382-11.608-31.129-10.754-42.115,1.097c-11.38,12.213-10.942,30.088,1.718,41.92
				c6.492,6.076,13.71,11.824,21.41,16.228c43.609,25.125,99.566,16.663,137.795-20.878c31.289-30.657,62.39-61.511,93.242-92.666
				c6.767-6.792,12.88-14.539,17.995-22.727C566.617,269.608,545.501,195.387,484.938,168.226z"/>
			<g>
				<path fill="#F96302" d="M352.479,510.464c1.155-1.135,2.133-2.489,3.229-3.771c-25.595,5.38-49.146,1.532-71.834-11.316
					c-1.471,1.39-3.217,2.967-4.888,4.578c-3.529,3.55-7.038,7.102-10.575,10.693l30.669,53.067
					C316.881,545.99,334.695,528.228,352.479,510.464z"/>
				<path fill="#F96302" d="M198,435.193l-30.74-53.125c-5.521,5.473-10.994,11.042-16.503,16.577l30.703,53.14
					C186.974,446.219,192.49,440.691,198,435.193z"/>
				<path fill="#F96302" d="M234.716,543.828l30.504,52.813c2.83-2.304,5.582-4.76,8.236-7.396c2.888-2.818,5.755-5.713,8.632-8.646
					l-30.594-52.891C245.98,533.209,240.406,538.629,234.716,543.828z"/>
			</g>
			<g>
				<path fill="#F96302" d="M369.949,336.705c-8.267-7.601-17.504-14.687-27.44-19.813c-43.419-22.306-96.875-12.233-134.427,24.777
					c-7.941,7.824-15.832,15.693-23.744,23.536l30.617,52.919c10.895-10.946,21.79-21.849,32.707-32.777
					c25.858-25.897,53.986-27.508,82.628-4.981c12.652,9.928,30.53,8.438,41.062-3.351
					C381.845,365.146,381.845,347.658,369.949,336.705z"/>
				<path fill="#F96302" d="M216.022,557.928c-3.51,1.98-7.097,3.853-10.777,5.161c-28.433,10.334-58.267-6.223-64.216-35.086
					c-4.436-21.536,3.733-39.41,18.888-54.569c1.512-1.576,3.047-3.078,4.596-4.651l-30.692-53.069
					c-5.403,5.479-10.854,10.883-16.236,16.374c-8.336,8.533-15.889,18.351-21.758,28.752
					c-6.592,11.688-10.905,23.879-13.203,36.188c-0.026-0.07,0.267-1.104,0.228-1.176c0,0.219-0.301,1.433-0.301,1.646
					c-5.256,28.975,1.108,58.276,17.087,81.529l-0.897,2.42l-49.264,40.766l89.842-8.605c1.717,0.912,3.476,1.759,5.269,2.488
					c32.454,14.211,69.834,11.432,101.468-6.224L216.022,557.928z"/>
			</g>
		</g>
		<path fill="#F96302" d="M27.464,174.086c0,0,181.489,3.663,194.534,175.056C221.998,349.142,56.078,370.912,27.464,174.086z"/>
		<path fill="#F96302" d="M390.021,446.805c0,0,181.448,3.627,194.516,175.001C584.535,621.806,418.598,643.6,390.021,446.805z"/>
	</g>
</g>
</svg>
