<svg xmlns="http://www.w3.org/2000/svg" x="0px" y="0px" width="600px" height="600px" viewBox="0 0 600 600" enable-background="new 0 0 600 600" xml:space="preserve">
<g>
	<g>
		<g>
			<path fill="#231F20" d="M478.938,76.226c-42.066-18.843-93.361-8.845-128.451,25.528c-26.575,26.005-52.723,52.488-79.024,78.746
				c-1.183,1.172-2.098,2.563-3.623,4.486c25.698-4.906,48.384-0.526,70.554,12.068l0,0c9.483,34.542,41.514,59.448,79.073,59.448
				c2.728,0,5.422-0.13,8.064-0.387c-17.938,18.003-35.931,35.947-53.901,53.896c-9.669,9.63-21.482,15.531-35.118,17.03
				c-16.127,1.794-30.204-2.523-42.365-13.823c-12.382-11.608-31.129-10.754-42.115,1.097c-11.38,12.213-10.942,30.088,1.718,41.92
				c6.492,6.076,13.71,11.824,21.41,16.227c43.61,25.125,99.567,16.663,137.795-20.878c31.289-30.657,62.39-61.511,93.242-92.666
				c6.767-6.792,12.88-14.539,17.995-22.727C560.617,177.608,539.501,103.387,478.938,76.226z"/>
			<g>
				<path fill="#231F20" d="M346.479,418.464c1.155-1.135,2.132-2.489,3.228-3.771c-25.595,5.38-49.147,1.533-71.834-11.316
					c-1.471,1.39-3.217,2.967-4.888,4.578c-3.529,3.55-7.038,7.102-10.575,10.693l30.669,53.068
					C310.881,453.99,328.695,436.228,346.479,418.464z"/>
				<path fill="#231F20" d="M192,343.193l-30.74-53.125c-5.521,5.473-10.994,11.042-16.503,16.576l30.703,53.14
					C180.974,354.219,186.49,348.691,192,343.193z"/>
				<path fill="#231F20" d="M228.716,451.828l30.504,52.813c2.83-2.304,5.582-4.76,8.236-7.396c2.888-2.818,5.755-5.713,8.632-8.646
					l-30.594-52.891C239.98,441.209,234.406,446.629,228.716,451.828z"/>
			</g>
			<g>
				<path fill="#231F20" d="M363.949,244.705c-8.266-7.601-17.504-14.687-27.44-19.813c-43.419-22.306-96.875-12.233-134.427,24.777
					c-7.941,7.824-15.832,15.693-23.744,23.536l30.617,52.919c10.895-10.946,21.79-21.849,32.707-32.777
					c25.858-25.897,53.986-27.508,82.628-4.981c12.652,9.928,30.53,8.438,41.062-3.351
					C375.845,273.146,375.845,255.658,363.949,244.705z"/>
				<path fill="#231F20" d="M210.022,465.928c-3.51,1.98-7.097,3.852-10.777,5.161c-28.433,10.334-58.267-6.223-64.216-35.086
					c-4.436-21.536,3.733-39.41,18.888-54.569c1.512-1.576,3.047-3.078,4.596-4.652l-30.692-53.069
					c-5.403,5.479-10.854,10.882-16.236,16.374c-8.336,8.533-15.889,18.35-21.758,28.752c-6.592,11.688-10.905,23.879-13.203,36.188
					c-0.026-0.07,0.267-1.104,0.228-1.175c0,0.218-0.301,1.432-0.301,1.646c-5.256,28.975,1.108,58.276,17.087,81.529l-0.897,2.42
					l-49.264,40.766l89.842-8.606c1.717,0.913,3.476,1.759,5.269,2.489c32.454,14.211,69.834,11.431,101.468-6.224L210.022,465.928z
					"/>
			</g>
		</g>
		<path fill="#231F20" d="M21.464,82.086c0,0,181.489,3.663,194.534,175.056C215.998,257.142,50.078,278.912,21.464,82.086z"/>
		<path fill="#231F20" d="M384.021,354.805c0,0,181.449,3.627,194.516,175.001C578.535,529.806,412.598,551.6,384.021,354.805z"/>
	</g>
</g>
</svg>
