<svg xmlns:xlink="http://www.w3.org/1999/xlink" x="0px" y="0px" width="1649.425px" height="250px" viewBox="0 0 1649.425 250" enable-background="new 0 0 1649.425 250" xml:space="preserve">
<g>
<g>
<path fill="#231F20" d="M512.382,141.5v48h104.311c9.109,0,16.5,7.391,16.5,16.5s-7.391,16.5-16.5,16.5H495.882
c-9.109,0-16.5-7.391-16.5-16.5V44c0-9.11,7.391-16.5,16.5-16.5h120.811c9.109,0,16.5,7.39,16.5,16.5s-7.391,16.5-16.5,16.5
H512.382v48h104.311c9.109,0,16.5,7.391,16.5,16.5s-7.391,16.5-16.5,16.5H512.382z"/>
</g>
<g>
<path fill="#231F20" d="M699.192,141.5v48h104.3c9.109,0,16.5,7.391,16.5,16.5s-7.391,16.5-16.5,16.5h-120.8
c-9.11,0-16.5-7.391-16.5-16.5V44c0-9.11,7.39-16.5,16.5-16.5h120.8c9.109,0,16.5,7.39,16.5,16.5s-7.391,16.5-16.5,16.5h-104.3v48
h104.3c9.109,0,16.5,7.391,16.5,16.5s-7.391,16.5-16.5,16.5H699.192z"/>
</g>
<path fill="#231F20" d="M436.802,136.571c-6.38-8.33-15.52-14.23-27.41-17.689c8.431-3.811,15.11-9.531,20.03-17.161
c4.92-7.62,7.38-16.01,7.38-25.14c0-8.43-2-16.03-5.99-22.81c-3.989-6.79-8.97-12.21-14.97-16.29
c-5.99-4.09-12.76-6.77-20.359-8.05c-7.58-1.28-19.08-1.93-34.521-1.93h-61.47c-9.11,0-16.5,7.39-16.5,16.5v162
c0,9.109,7.39,16.5,16.5,16.5h49.899c25.101-0.17,40.931-0.619,47.5-1.33c10.46-1.15,19.261-4.23,26.4-9.24
s12.78-11.709,16.91-20.08c4.12-8.391,6.18-17.02,6.18-25.869C446.382,154.709,443.192,144.911,436.802,136.571z M391.662,181.959
c-4.69,4.682-11.16,7.58-18.32,7.58h-57.34v-35.309c0-9.1,7.39-16.49,16.5-16.49h40.84c14.311,0.01,25.9,11.6,25.9,25.9
C399.242,170.79,396.342,177.27,391.662,181.959z M382.082,104.731h-66.08V77.01c0-9.11,7.39-16.5,16.5-16.5h49.58
c12.21,0.01,22.11,9.9,22.11,22.11C404.192,94.84,394.292,104.731,382.082,104.731z"/>
<path fill="#231F20" d="M990.312,189.5H885.992V44c0-9.11-7.391-16.5-16.5-16.5c-9.11,0-16.5,7.39-16.5,16.5v162
c0,9.109,7.39,16.5,16.5,16.5h4.02h12.48h104.319c9.12,0,16.511-7.391,16.511-16.5S999.432,189.5,990.312,189.5z"/>
<g>
<path fill="#231F20" d="M1056.312,27.5c-9.1,0-16.489,7.39-16.489,16.5v162c0,9.109,7.39,16.5,16.489,16.5
c9.12,0,16.511-7.391,16.511-16.5V44C1072.822,34.891,1065.432,27.5,1056.312,27.5z"/>
</g>
<g>
<path fill="#231F20" d="M1260.562,44v162c0,9.109-7.39,16.5-16.5,16.5h-7.6c-5.64,0-10.62-2.83-13.6-7.15
c-0.09-0.141-0.181-0.279-0.271-0.42l-83.77-127.6V206c0,9.109-7.391,16.5-16.511,16.5c-9.1,0-16.489-7.391-16.489-16.5V44
c0-9.11,7.39-16.5,16.489-16.5h7.601c5.7,0,10.72,2.89,13.689,7.27c0.11,0.17,0.221,0.34,0.341,0.51l83.619,127.111V44
c0-9.11,7.391-16.5,16.5-16.5C1253.172,27.5,1260.562,34.891,1260.562,44z"/>
</g>
<g>
<path fill="#231F20" d="M1444.812,206c0,9.109-7.39,16.5-16.5,16.5c-5.579,0-10.51-2.77-13.5-7.01v-0.01l-0.039-0.061l-0.011-0.01
l-0.31-0.471l-0.11-0.16l-0.14-0.229L1360.592,133l-34.03,51.92V206c0,9.109-7.39,16.5-16.5,16.5c-9.109,0-16.5-7.391-16.5-16.5
V44c0-9.11,7.391-16.5,16.5-16.5c9.11,0,16.5,7.39,16.5,16.5v80.779l58.591-89.33l0.109-0.17l0.46-0.7l0.04-0.05l0.08-0.12
c2.99-4.18,7.891-6.91,13.42-6.91c9.11,0,16.5,7.39,16.5,16.5c0,2.84-0.72,5.52-1.989,7.86l-0.03,0.06l-0.04,0.06l-1.37,2.08
l-0.01,0.02l-32.03,48.87l60.96,92.82l0.021,0.031l1.579,2.398C1444.102,200.52,1444.812,203.18,1444.812,206z"/>
</g>
<g>
<path fill="#F96302" d="M249.997,16.5v217c0,9.119-7.391,16.5-16.501,16.5H16.498c-9.11,0-16.5-7.381-16.5-16.5v-217
c0-9.11,7.391-16.5,16.5-16.5h216.999C242.606,0,249.997,7.39,249.997,16.5z"/>
<g>
<g>
<g>
<path fill="#FFFFFF" d="M184.634,50.426c-14.021-6.28-31.116-2.948-42.812,8.508c-8.856,8.667-17.571,17.493-26.337,26.244
c-0.395,0.391-0.699,0.854-1.207,1.495c8.564-1.635,16.125-0.176,23.514,4.022l0,0c3.161,11.512,13.835,19.813,26.354,19.813
c0.908,0,1.807-0.043,2.688-0.129c-5.978,6-11.974,11.98-17.964,17.963c-3.223,3.209-7.16,5.176-11.704,5.676
c-5.375,0.598-10.066-0.842-14.119-4.607c-4.127-3.869-10.375-3.584-14.036,0.365c-3.793,4.07-3.646,10.027,0.572,13.971
c2.164,2.025,4.569,3.941,7.136,5.408c14.535,8.373,33.185,5.553,45.924-6.959c10.428-10.217,20.793-20.5,31.075-30.883
c2.256-2.264,4.293-4.846,5.998-7.574C211.855,84.214,204.818,59.478,184.634,50.426z"/>
<g>
<path fill="none" d="M77.843,150.594c-0.516,0.525-1.027,1.025-1.531,1.551c-5.051,5.053-7.773,11.01-6.295,18.188
c1.982,9.619,11.926,15.137,21.401,11.693c1.227-0.438,2.422-1.061,3.592-1.721"/>
<path fill="#FFFFFF" d="M140.488,164.487c0.385-0.379,0.709-0.83,1.074-1.258c-8.53,1.793-16.38,0.512-23.94-3.771
c-0.49,0.463-1.072,0.988-1.629,1.525c-1.176,1.184-2.346,2.367-3.524,3.564l10.222,17.688
C128.624,176.327,134.562,170.407,140.488,164.487z"/>
<path fill="#FFFFFF" d="M89.004,139.401l-10.245-17.705c-1.84,1.824-3.664,3.68-5.5,5.523l10.232,17.711
C85.329,143.075,87.167,141.233,89.004,139.401z"/>
<path fill="#FFFFFF" d="M101.24,175.606l10.166,17.602c0.943-0.768,1.86-1.586,2.745-2.465
c0.963-0.939,1.918-1.904,2.877-2.881l-10.196-17.627C104.994,172.067,103.137,173.874,101.24,175.606z"/>
</g>
<g>
<path fill="#FFFFFF" d="M146.311,106.577c-2.754-2.533-5.834-4.895-9.146-6.604c-14.471-7.434-32.286-4.077-44.802,8.258
c-2.646,2.607-5.276,5.23-7.913,7.844l10.204,17.637c3.631-3.648,7.262-7.281,10.9-10.924
c8.618-8.631,17.993-9.168,27.538-1.66c4.217,3.309,10.175,2.813,13.685-1.117
C150.275,116.055,150.275,110.227,146.311,106.577z"/>
<path fill="#FFFFFF" d="M95.01,180.305c-1.17,0.66-2.365,1.283-3.592,1.721c-9.476,3.443-19.419-2.074-21.401-11.693
c-1.479-7.178,1.244-13.135,6.295-18.188c0.504-0.525,1.016-1.025,1.531-1.551l-10.229-17.688
c-1.801,1.826-3.617,3.627-5.411,5.457c-2.778,2.844-5.295,6.115-7.251,9.582c-2.197,3.895-3.635,7.959-4.4,12.061
c-0.009-0.023,0.089-0.367,0.076-0.391c0,0.072-0.101,0.477-0.101,0.549c-1.752,9.656,0.369,19.422,5.694,27.172l-0.299,0.807
l-16.418,13.586l29.942-2.869c0.572,0.305,1.158,0.586,1.756,0.83c10.816,4.736,23.274,3.809,33.817-2.074L95.01,180.305z"/>
</g>
</g>
<path fill="#FFFFFF" d="M32.168,52.379c0,0,60.486,1.221,64.834,58.342C97.002,110.721,41.704,117.977,32.168,52.379z"/>
<path fill="#FFFFFF" d="M153,143.27c0,0,60.474,1.209,64.827,58.324C217.827,201.594,162.524,208.858,153,143.27z"/>
</g>
</g>
</g>
<g>
<path fill="#231F20" d="M1541.617,222.497h-7.032c-31.346-0.17-56.773-25.739-56.773-56.998c0-9.112,7.388-16.5,16.5-16.5
s16.5,7.388,16.5,16.5c0,13.161,10.705,23.927,23.863,23.998h6.942c0.093,0,4.604-0.001,5.111-0.002
c13.175-0.133,23.818-10.879,23.818-23.996c0-13.233-10.766-23.999-23.998-23.999h-11.738c-31.43,0-56.999-25.569-56.999-56.998
c0-31.034,25.242-56.602,56.269-56.993c0.2-0.003,5.481-0.005,5.66-0.005c0.133,0,7.19,0.001,7.321,0.002
c31.159,0.292,56.485,25.86,56.485,56.996c0,9.113-7.388,16.5-16.5,16.5s-16.5-7.387-16.5-16.5
c0-13.109-10.661-23.875-23.765-23.997c-0.305-0.001-6.916-0.001-7.042-0.001c-0.16,0-4.628,0.001-5.304,0.003
c-13.032,0.196-23.625,10.948-23.625,23.995c0,13.232,10.766,23.998,23.999,23.998h11.738c31.429,0,56.998,25.569,56.998,56.999
c0,31.227-25.401,56.794-56.623,56.996C1546.903,222.495,1541.71,222.497,1541.617,222.497z"/>
</g>
</g>
</svg>
