<svg xmlns="http://www.w3.org/2000/svg" x="0px" y="0px" width="38px" height="38px" viewBox="0 0 38 38" enable-background="new 0 0 38 38" xml:space="preserve">
<rect x="-20" y="-20" display="none" width="78" height="78"/>
<g>
	<path fill="#FFFFFF" d="M19,22.167c2.628,0,4.734-2.121,4.734-4.75l0.016-9.5c0-2.628-2.122-4.75-4.75-4.75s-4.75,2.122-4.75,4.75
		v9.5C14.25,20.045,16.372,22.167,19,22.167z M27.392,17.417c0,4.75-4.022,8.075-8.392,8.075s-8.392-3.325-8.392-8.075H7.917
		c0,5.399,4.307,9.865,9.5,10.64v5.194h3.167v-5.194c5.192-0.759,9.5-5.225,9.5-10.64H27.392z"/>
</g>
</svg>
