<svg xmlns="http://www.w3.org/2000/svg" x="0px" y="0px" width="38px" height="38px" viewBox="0 0 38 38" enable-background="new 0 0 38 38" xml:space="preserve">
<rect x="-20" y="-20" display="none" width="78" height="78"/>
<g>
	<path fill="#FFFFFF" d="M30.083,18.208h-2.692c0,1.173-0.252,2.265-0.681,3.246l1.947,1.948
		C29.545,21.85,30.083,20.093,30.083,18.208z M23.719,18.478c0-0.095,0.031-0.174,0.031-0.27v-9.5c0-2.628-2.122-4.75-4.75-4.75
		s-4.75,2.122-4.75,4.75v0.286L23.719,18.478z M6.761,5.542L4.75,7.553l9.516,9.517v1.139c0,2.629,2.106,4.75,4.734,4.75
		c0.349,0,0.697-0.048,1.03-0.126l2.628,2.628c-1.125,0.522-2.375,0.823-3.658,0.823c-4.37,0-8.392-3.325-8.392-8.075H7.917
		c0,5.399,4.307,9.865,9.5,10.64v5.194h3.167v-5.194c1.441-0.205,2.802-0.713,4.021-1.424l6.635,6.618l2.01-2.011L6.761,5.542z"/>
</g>
</svg>
