<?xml version="1.0" encoding="utf-8"?>
<!-- Generator: Adobe Illustrator 16.0.0, SVG Export Plug-In . SVG Version: 6.00 Build 0)  -->
<!DOCTYPE svg PUBLIC "-//W3C//DTD SVG 1.1//EN" "http://www.w3.org/Graphics/SVG/1.1/DTD/svg11.dtd">
<svg version="1.1" id="Layer_1" xmlns="http://www.w3.org/2000/svg" xmlns:xlink="http://www.w3.org/1999/xlink" x="0px" y="0px"
	 width="38px" height="38px" viewBox="0 0 38 38" enable-background="new 0 0 38 38" xml:space="preserve">
<rect x="-20.001" y="-20" display="none" fill="#231F20" width="78" height="78"/>
<path fill="#FFFFFF" d="M30.05,9.416l-2.297-1.743l-2.682,0.555c-0.396-2.641-2.479-4.737-5.111-5.153
	c1.146,0.738,2.07,1.791,2.648,3.036c0.563,0.67,0.943,1.498,1.063,2.406L22.2,8.822C22.034,5.583,19.347,3,16.069,3
	c-3.385,0-6.139,2.754-6.139,6.138v2.222l-5.148,1.065v18.06L27.753,35l5.465-1.979V9.336L30.05,9.416z M11.354,9.138
	c0-2.598,2.115-4.712,4.715-4.712c2.59,0,4.699,2.102,4.713,4.69l-6.496,1.343v-1.32c0-1.466,0.674-2.777,1.727-3.643
	c-1.045,0.017-1.986,0.474-2.643,1.196c-0.326,0.75-0.51,1.577-0.51,2.446v1.616l-1.506,0.312V9.138z M14.919,26.627l-5.33-0.633
	v-4.306h5.33V26.627z M14.919,21.072h-5.33v-4.393l5.33-0.633V21.072z M22.548,27.534l-7.014-0.833v-5.012h7.014V27.534z
	 M22.548,21.072h-7.014v-5.1l7.014-0.834V21.072z"/>
</svg>
