<svg xmlns="http://www.w3.org/2000/svg" x="0px" y="0px" width="38px" height="38px" viewBox="0 0 38 38" enable-background="new 0 0 38 38" xml:space="preserve"><rect x="-20" y="-20" display="none" width="78" height="78"/><path fill="#ffffff" d="M25.333,1.583H12.667c-2.185,0-3.958,1.773-3.958,3.958v26.917c0,2.185,1.773,3.958,3.958,3.958h12.667c2.185,0,3.958-1.773,3.958-3.958V5.542C29.292,3.357,27.518,1.583,25.333,1.583z M19,34.833c-1.314,0-2.375-1.061-2.375-2.375c0-1.314,1.061-2.375,2.375-2.375s2.375,1.061,2.375,2.375C21.375,33.772,20.314,34.833,19,34.833z M26.125,28.5h-14.25V6.333h14.25V28.5z"/></svg>