<svg xmlns="http://www.w3.org/2000/svg" x="0px" y="0px" width="38px" height="38px" viewBox="0 0 38 38" enable-background="new 0 0 38 38" xml:space="preserve">
<rect x="-20" y="-20" display="none" fill="#231F20" width="78" height="78"/>
<g>
	<path fill="#d2d6de" d="M19,12c2.75,0,5-2.25,5-5c0-2.75-2.25-5-5-5s-5,2.25-5,5C14,9.75,16.25,12,19,12z"/>
	<path fill="#d2d6de" d="M19,26c-2.75,0-5,2.25-5,5c0,2.749,2.25,5,5,5s5-2.251,5-5C24,28.25,21.75,26,19,26z"/>
	<path fill="#d2d6de" d="M19,14c-2.75,0-5,2.25-5,5c0,2.749,2.25,5,5,5s5-2.251,5-5C24,16.25,21.75,14,19,14z"/>
</g>
</svg>
