<?xml version="1.0" encoding="utf-8"?>
<!-- Generator: Adobe Illustrator 16.0.0, SVG Export Plug-In . SVG Version: 6.00 Build 0)  -->
<!DOCTYPE svg PUBLIC "-//W3C//DTD SVG 1.1//EN" "http://www.w3.org/Graphics/SVG/1.1/DTD/svg11.dtd">
<svg version="1.1" id="Layer_1" xmlns="http://www.w3.org/2000/svg" xmlns:xlink="http://www.w3.org/1999/xlink" x="0px" y="0px"
	 width="38px" height="38px" viewBox="0 0 38 38" enable-background="new 0 0 38 38" xml:space="preserve">
<rect x="-20" y="-20" display="none" fill="#2D2D2D" width="78" height="78"/>
<g>
	<path fill="#FFFFFF" d="M12.002,6.46L9.736,4.196c-3.799,2.897-6.301,7.362-6.521,12.429h3.167
		C6.619,12.429,8.771,8.756,12.002,6.46z M31.62,16.625h3.167c-0.238-5.067-2.74-9.532-6.525-12.429L26.014,6.46
		C29.213,8.756,31.382,12.429,31.62,16.625z M28.5,17.417c0-4.86-2.598-8.93-7.125-10.006V6.333c0-1.314-1.061-2.375-2.375-2.375
		s-2.375,1.061-2.375,2.375V7.41C12.081,8.486,9.5,12.54,9.5,17.417v7.917L6.333,28.5v1.583h25.333V28.5L28.5,25.333V17.417z
		 M19,34.833c0.221,0,0.428-0.016,0.632-0.063c1.03-0.221,1.87-0.918,2.281-1.868c0.158-0.381,0.238-0.792,0.238-1.236h-6.333
		C15.833,33.408,17.242,34.833,19,34.833z"/>
</g>
</svg>
