<?xml version="1.0" encoding="utf-8"?>
<!-- Generator: Adobe Illustrator 16.0.0, SVG Export Plug-In . SVG Version: 6.00 Build 0)  -->
<!DOCTYPE svg PUBLIC "-//W3C//DTD SVG 1.1//EN" "http://www.w3.org/Graphics/SVG/1.1/DTD/svg11.dtd">
<svg version="1.1" id="Layer_1" xmlns="http://www.w3.org/2000/svg" xmlns:xlink="http://www.w3.org/1999/xlink" x="0px" y="0px"
	 width="38px" height="38px" viewBox="0 0 38 38" enable-background="new 0 0 38 38" xml:space="preserve">
<rect x="-20" y="-20" display="none" fill="#2D2D2D" width="78" height="78"/>
<path fill="#FFFFFF" d="M32.002,16.719L8.605,3.345C8.201,3.115,7.754,3,7.305,3c-0.01,0-0.02,0.001-0.027,0.001
	c-0.061,0-0.121,0.003-0.182,0.008c-0.027,0.002-0.053,0.005-0.08,0.008c-0.047,0.005-0.094,0.012-0.141,0.02
	C6.857,3.04,6.84,3.041,6.824,3.044v0.001c-0.291,0.054-0.576,0.156-0.84,0.31C5.174,3.825,4.676,4.69,4.676,5.626v26.748
	c0,0.936,0.498,1.801,1.309,2.271c0.264,0.153,0.549,0.257,0.84,0.311v0.001c0.016,0.003,0.031,0.004,0.045,0.006
	c0.051,0.009,0.102,0.016,0.15,0.021c0.025,0.002,0.051,0.005,0.076,0.007c0.059,0.005,0.119,0.008,0.178,0.009
	c0.01,0,0.02,0.001,0.031,0.001c0.449,0,0.896-0.114,1.301-0.345l23.396-13.374c0.816-0.468,1.322-1.337,1.322-2.28c0,0,0,0,0-0.001
	v0v0c0,0,0,0,0-0.001C33.324,18.057,32.818,17.187,32.002,16.719z M22.748,14.063l-2.326,3.052L14.504,9.35L22.748,14.063z
	 M30.867,19.297L14.504,28.65L24.75,15.209l6.117,3.497c0.105,0.061,0.172,0.174,0.172,0.295
	C31.039,19.123,30.973,19.236,30.867,19.297z"/>
</svg>
