<?xml version="1.0" encoding="utf-8"?>
<!-- Generator: Adobe Illustrator 16.0.0, SVG Export Plug-In . SVG Version: 6.00 Build 0)  -->
<!DOCTYPE svg PUBLIC "-//W3C//DTD SVG 1.1//EN" "http://www.w3.org/Graphics/SVG/1.1/DTD/svg11.dtd">
<svg version="1.1" id="Layer_1" xmlns="http://www.w3.org/2000/svg" xmlns:xlink="http://www.w3.org/1999/xlink" x="0px" y="0px"
	 width="38px" height="38px" viewBox="0 0 38 38" enable-background="new 0 0 38 38" xml:space="preserve">
<rect x="-20" y="-20" display="none" fill="#231F20" width="78" height="78"/>
<path fill="#FFFFFF" d="M31.565,20.848c-1.698-2.061-3.807-3.702-6.183-4.766c-0.246-0.11-0.494-0.214-0.745-0.312L23.924,4.923
	h1.634c0.125,0,0.228-0.102,0.228-0.228v-1.02C25.785,2.198,24.586,1,23.108,1h-3.281h-4.936c-1.478,0-2.677,1.198-2.677,2.676v1.02
	c0,0.126,0.103,0.228,0.228,0.228h1.782l-0.246,3.184l0,0l-0.591,7.653c-2.69,1.04-5.072,2.806-6.953,5.087
	c-0.232,0.28-0.032,0.705,0.333,0.705h10.052l0,0l0,0l0.503,4.056l0,0l1.381,11.13c0.044,0.349,0.55,0.349,0.594,0l1.625-13.092
	l0.259-2.094l0,0l0,0h6.974l0,0h3.078c0.182,0,0.324-0.106,0.391-0.247C31.689,21.164,31.682,20.987,31.565,20.848z"/>
</svg>
