<?xml version="1.0" encoding="utf-8"?>
<!-- Generator: Adobe Illustrator 16.0.0, SVG Export Plug-In . SVG Version: 6.00 Build 0)  -->
<!DOCTYPE svg PUBLIC "-//W3C//DTD SVG 1.1//EN" "http://www.w3.org/Graphics/SVG/1.1/DTD/svg11.dtd">
<svg version="1.1" id="Layer_1" xmlns="http://www.w3.org/2000/svg" xmlns:xlink="http://www.w3.org/1999/xlink" x="0px" y="0px"
	 width="38px" height="38px" viewBox="0 0 38 38" enable-background="new 0 0 38 38" xml:space="preserve">
<rect x="-20" y="-20" display="none" fill="#2D2D2D" width="78" height="78"/>
<path fill="#FFFFFF" d="M24.779,30.99c0.257-2.658-0.074-5.309-1.001-7.742c-0.097-0.252-0.198-0.5-0.307-0.747l7.165-8.175
	l1.155,1.155c0.088,0.088,0.232,0.089,0.321,0l0.721-0.721c1.046-1.045,1.045-2.74,0-3.785l-2.32-2.32l-3.489-3.49
	c-1.045-1.045-2.74-1.045-3.785,0l-0.722,0.721c-0.089,0.089-0.088,0.233,0,0.321l1.261,1.261l-2.426,2.077l0,0l-5.829,4.994
	c-2.638-1.167-5.57-1.603-8.514-1.319c-0.362,0.034-0.521,0.476-0.263,0.734l7.107,7.107l0,0l0,0l-2.513,3.224l0,0l-6.894,8.847
	c-0.216,0.278,0.142,0.636,0.42,0.42l10.407-8.109l1.663-1.297l0,0l0,0l4.931,4.931l0,0l2.177,2.177
	c0.129,0.128,0.305,0.154,0.451,0.101C24.645,31.302,24.764,31.171,24.779,30.99z"/>
</svg>
