<?xml version="1.0" encoding="utf-8"?>
<!-- Generator: Adobe Illustrator 16.0.0, SVG Export Plug-In . SVG Version: 6.00 Build 0)  -->
<!DOCTYPE svg PUBLIC "-//W3C//DTD SVG 1.1//EN" "http://www.w3.org/Graphics/SVG/1.1/DTD/svg11.dtd">
<svg version="1.1" id="Layer_1" xmlns="http://www.w3.org/2000/svg" xmlns:xlink="http://www.w3.org/1999/xlink" x="0px" y="0px"
	 width="38px" height="38px" viewBox="0 0 38 38" enable-background="new 0 0 38 38" xml:space="preserve">
<rect x="-20" y="-20" display="none" fill="#231F20" width="78" height="78"/>
<g>
	<g>
		<path fill="#FFFFFF" d="M19,3C10.2,3,3,10.2,3,19s7.2,16,16,16s16-7.2,16-16S27.8,3,19,3z M19,32c-7.2,0-13-5.8-13-13
			c0-7.2,5.8-13,13-13s13,5.8,13,13S26.2,32,19,32z"/>
		<path fill="#FFFFFF" d="M27.3,10.7L21.1,21.1L16.9,16.9L27.3,10.7z"/>
		<path fill="#FFFFFF" d="M10.7,27.3L21.1,21.1L16.9,16.9L10.7,27.3z"/>
	</g>
</g>
</svg>
