<svg xmlns="http://www.w3.org/2000/svg" width="38" height="38"><path d="M34.896 31.317L23.293 19.714a3.31 3.31 0 0 0-.345-.296l2.055-2.163.297-.332c2.728 1.03 5.93.45 8.122-1.742 1.6-1.6 2.405-3.813 2.21-6.07a.66.66 0 0 0-.431-.564c-.24-.088-.512-.027-.693.153l-3.718 3.718-3.766-.95-1.067-3.883 3.718-3.718c.184-.182.24-.452.153-.692a.66.66 0 0 0-.563-.432 7.64 7.64 0 0 0-6.071 2.212c-2.2 2.2-2.77 5.39-1.742 8.117l-.332.304-3.024 2.904-5.554-5.552a1.84 1.84 0 0 0-.22-.188l.188-.354c1.172.226 3.316-2.06 5.138-3.878L12.343 1C9.97 3.374 8.237 4.966 8.463 6.14c-.543.265-1.026.59-1.37.932l-.747.745a3.16 3.16 0 0 0-.883 1.72l-.22.263-.277.35c-.008.01-.032.043-.04.052l-.252.354c-.158.2-.296.44-.43.66l-.15.246c-.01.014-.018.028-.024.042l-.112.212-.396.807-.02.046-.39 1.056-.05.16-.12.42-.103.51c-.078.32-.103.634-.126.914l-.015.184c-.038.29-.027.562-.018.802l.01.266.004.13.026.357.064.415.035.232c.025.168.052.342.102.508l.27.94c.084.287.354.475.65.456.158-.012.3-.08.405-.185a.64.64 0 0 0 .181-.356l.142-.958a2.26 2.26 0 0 1 .077-.305l.063-.236.102-.357c.01-.048.036-.096.057-.143l.057-.137.098-.23c.062-.152.118-.297.21-.437l.11-.196c.092-.166.18-.323.286-.452.005-.008.01-.017.02-.025l.236-.325.155-.178.123-.138c.14-.167.303-.313.46-.458l.085-.076c.116-.108.253-.21.395-.318l.17-.13.21-.14.37-.228.28-.16.282-.14c.1-.05.196-.1.286-.126l.154-.064.143-.053.186-.062.077-.017a1.98 1.98 0 0 0 .298.379l5.493 5.495-11.73 11.26c-1.473 1.474-1.7 3.61-.25 5.07s3.46 1.085 4.92-.373l.018-.02 10.347-10.894.188.21 11.602 11.602a3.33 3.33 0 0 0 4.708 0c1.298-1.3 1.298-3.4 0-4.708zM6.52 33.92a1.37 1.37 0 0 1-1.946 0c-.537-.537-.537-1.408 0-1.944s1.4-.538 1.946 0 .538 1.41 0 1.944z" fill="#231f20"/></svg>