<svg xmlns="http://www.w3.org/2000/svg" width="38px" height="38px" viewBox="0 0 38 38" enable-background="new 0 0 38 38" xml:space="preserve">
<rect x="-20" y="-20" display="none" fill="#231F20" width="78" height="78"/>
<path fill="#afb6c4" d="M19,7.75C11.5,7.75,5.095,12.415,2.5,19c2.595,6.586,9,11.25,16.5,11.25S32.904,25.586,35.5,19
	C32.904,12.415,26.5,7.75,19,7.75z M19,26.5c-4.14,0-7.5-3.36-7.5-7.5s3.36-7.5,7.5-7.5s7.5,3.36,7.5,7.5S23.14,26.5,19,26.5z
	 M19,14.5c-2.49,0-4.5,2.01-4.5,4.5s2.01,4.5,4.5,4.5s4.5-2.01,4.5-4.5S21.49,14.5,19,14.5z"/>
</svg>
