<svg xmlns="http://www.w3.org/2000/svg" x="0px" y="0px" width="38px" height="38px" viewBox="0 0 38 38" enable-background="new 0 0 38 38" xml:space="preserve">
<g>
	<path fill="#FFFFFF" d="M10.613,4.832c-3.926,0-7.113,3.187-7.113,7.114c0,3.926,3.188,7.113,7.113,7.113
		c3.928,0,7.114-3.188,7.114-7.113C17.728,8.019,14.541,4.832,10.613,4.832z M14.17,12.656H7.058v-1.423h7.112V12.656z"/>
</g>
<g>
	<path fill="none" d="M21.776,9.995c3.595,0,6.689,2.518,8.075,6.135c0.162-0.334,0.399-0.623,0.688-0.851
		c-0.439-4.448-4.201-7.934-8.763-7.934c-1.132,0-2.214,0.216-3.21,0.606c0.383,0.76,0.66,1.58,0.813,2.445
		C20.139,10.146,20.938,9.995,21.776,9.995z"/>
	<path fill="#FFFFFF" d="M33.484,15.219C33.007,9.177,27.938,4.407,21.776,4.407c-1.785,0-3.474,0.411-4.989,1.127
		c0.723,0.695,1.324,1.514,1.779,2.418c0.996-0.391,2.078-0.606,3.21-0.606c4.562,0,8.323,3.485,8.763,7.934
		c-0.288,0.228-0.525,0.517-0.688,0.851c-1.386-3.617-4.48-6.135-8.075-6.135c-0.838,0-1.638,0.15-2.397,0.402
		c0.088,0.504,0.143,1.02,0.143,1.549c0,4.916-3.99,8.907-8.908,8.907c-0.533,0-1.053-0.056-1.561-0.146v2.624
		c0,1.354,1.102,2.448,2.449,2.448c0.924,0,1.729-0.513,2.145-1.269c0.01,0.03,0.021,0.06,0.033,0.089
		c0.004,0.009,0.007,0.02,0.01,0.027c0.979,2.573,2.88,4.73,5.389,5.673c0.605-0.964,1.678-1.604,2.902-1.604h4.291
		c0.428,0,0.826-0.121,1.176-0.316c0.586-0.328,1.113-1.16,1.386-1.602c0.437-0.705,0.774-1.453,1.073-2.268
		c0.168,0.306,0.398,0.572,0.678,0.779v1.053c0,2.377-1.936,4.313-4.313,4.313H21.98c-0.813,0-1.47,0.657-1.47,1.469
		c0,0.811,0.657,1.469,1.47,1.469h4.291c3.997,0,7.25-3.252,7.25-7.25V25.29c0.594-0.447,0.979-1.158,0.979-1.958v-4.43v-1.699
		C34.5,16.387,34.1,15.663,33.484,15.219z"/>
</g>
</svg>
