<svg xmlns="http://www.w3.org/2000/svg" x="0px" y="0px" width="38px" height="38px" viewBox="0 0 38 38" enable-background="new 0 0 38 38" xml:space="preserve">
<g>
	<path fill="#FFFFFF" d="M32.004,24.977v5.01c0,0.41-0.149,0.766-0.447,1.064c-0.299,0.299-0.654,0.449-1.064,0.449H7.508
		c-0.43,0-0.784-0.15-1.064-0.449s-0.43-0.654-0.447-1.064v-5.01c0-0.41,0.149-0.766,0.447-1.063
		c0.299-0.299,0.654-0.44,1.064-0.422h6.663c0.224,0.579,0.588,1.055,1.092,1.429c0.504,0.373,1.082,0.561,1.735,0.561h4.004
		c0.635,0,1.204-0.188,1.708-0.561c0.503-0.374,0.877-0.85,1.119-1.429h6.663c0.41,0,0.766,0.142,1.064,0.422
		C31.854,24.193,32.004,24.546,32.004,24.977z M26.908,14.87c-0.167,0.41-0.476,0.615-0.924,0.615h-4.003v6.999
		c0,0.28-0.093,0.513-0.28,0.699c-0.187,0.187-0.42,0.289-0.699,0.308h-4.004c-0.279,0-0.513-0.103-0.699-0.308
		c-0.188-0.205-0.29-0.438-0.308-0.699v-6.999h-4.005c-0.429,0-0.732-0.205-0.908-0.615c-0.178-0.41-0.108-0.774,0.209-1.094
		l6.999-6.999C18.472,6.593,18.707,6.5,18.985,6.5c0.28,0,0.515,0.093,0.701,0.277l6.999,6.999
		C27.021,14.096,27.096,14.46,26.908,14.87z M25.984,28.477c0-0.263-0.093-0.495-0.278-0.702c-0.188-0.205-0.421-0.296-0.701-0.278
		c-0.28,0.019-0.514,0.112-0.699,0.278c-0.187,0.169-0.29,0.403-0.309,0.702c-0.019,0.298,0.084,0.53,0.309,0.699
		c0.224,0.168,0.457,0.271,0.699,0.308c0.243,0.036,0.477-0.066,0.701-0.308C25.929,28.932,26.022,28.699,25.984,28.477z
		 M29.989,28.477c0-0.263-0.095-0.495-0.28-0.702c-0.188-0.205-0.43-0.296-0.729-0.278c-0.298,0.019-0.531,0.112-0.7,0.278
		c-0.168,0.169-0.261,0.403-0.279,0.702c-0.02,0.298,0.074,0.53,0.279,0.699c0.206,0.168,0.438,0.271,0.7,0.308
		c0.261,0.036,0.504-0.066,0.729-0.308C29.932,28.932,30.025,28.699,29.989,28.477z"/>
</g>
</svg>
