<svg xmlns="http://www.w3.org/2000/svg" width="38" height="38"><path d="M19.265 19.862a5.28 5.28 0 0 0 0-10.56 5.28 5.28 0 1 0 0 10.56zm2.24.36h-4.48a6.77 6.77 0 0 0-6.76 6.761v5.48l.014.086.378.118c3.557 1.1 6.648 1.482 9.192 1.482 4.968 0 7.848-1.417 8.026-1.507l.352-.18h.038v-5.48a6.77 6.77 0 0 0-6.76-6.761zm8.735-5.45h-3.76a7.19 7.19 0 0 1-1.501 4.226 8.7 8.7 0 0 1 2.684 1.828 8.65 8.65 0 0 1 2.552 6.158v1.66c3.962-.256 6.238-1.373 6.396-1.452l.353-.178H37v-5.48a6.77 6.77 0 0 0-6.76-6.761zM28 3.852c-2.626.001-4.78 1.926-5.188 4.437 2.084 1.18 3.522 3.362 3.664 5.888a5.21 5.21 0 0 0 1.524.235 5.28 5.28 0 1 0 0-10.56zM8.314 26.983c0-3.57 2.16-6.64 5.238-7.984a7.26 7.26 0 0 1-1.502-4.227h-4.3A6.77 6.77 0 0 0 1 21.532v5.48l.014.084.378.12c2.567.802 4.873 1.2 6.923 1.37v-1.6zm3.75-13.003a7.23 7.23 0 0 1 3.185-5.407 5.28 5.28 0 0 0-10.529.559 5.28 5.28 0 0 0 5.28 5.279 5.19 5.19 0 0 0 2.064-.431z" fill="#fff"/></svg>