<svg xmlns="http://www.w3.org/2000/svg" x="0px" y="0px" width="38px" height="38px" viewBox="0 0 38 38" enable-background="new 0 0 38 38" xml:space="preserve">
<rect x="-20" y="-20" display="none" width="78" height="78"/>
<g>
	<path fill="#FFFFFF" d="M26.125,19c0-2.803-1.614-5.209-3.958-6.381v3.5l3.88,3.878C26.094,19.681,26.125,19.348,26.125,19z
		 M30.083,19c0,1.487-0.317,2.882-0.855,4.181l2.392,2.39c1.044-1.963,1.63-4.196,1.63-6.571c0-6.777-4.734-12.445-11.083-13.886
		v3.262C26.744,9.737,30.083,13.981,30.083,19z M6.761,4.75L4.75,6.761l7.489,7.489H4.75v9.5h6.333L19,31.667V21.01l6.729,6.729
		c-1.061,0.824-2.248,1.474-3.563,1.869v3.261c2.185-0.49,4.164-1.503,5.842-2.865l3.231,3.246l2.01-2.01L19,16.989L6.761,4.75z
		 M19,6.333l-3.309,3.309L19,12.952V6.333z"/>
</g>
</svg>
