<?xml version="1.0" encoding="utf-8"?>
<!-- Generator: Adobe Illustrator 16.0.0, SVG Export Plug-In . SVG Version: 6.00 Build 0)  -->
<!DOCTYPE svg PUBLIC "-//W3C//DTD SVG 1.1//EN" "http://www.w3.org/Graphics/SVG/1.1/DTD/svg11.dtd">
<svg version="1.1" id="Layer_1" xmlns="http://www.w3.org/2000/svg" xmlns:xlink="http://www.w3.org/1999/xlink" x="0px" y="0px"
	 width="550px" height="170px" viewBox="0 0 550 170" enable-background="new 0 0 550 170" xml:space="preserve">
<g>
	<rect width="550" height="170"/>
	<g>
		<text transform="matrix(1 0 0 1 170.001 62.1123)" fill="#FFFFFF" font-family="'Montserrat-Medium'" font-size="26">GET IT FROM</text>
		<text transform="matrix(1 0 0 1 170.001 115.4922)" fill="#FFFFFF" font-family="'Montserrat-Medium'" font-size="55.1137">Google Play</text>
	</g>
	<g>
		<polygon fill="#5CDADD" points="41.652,36 41.652,84.141 41.652,134 93.231,84.141 		"/>
		<polygon fill="#BDECC4" points="106.643,70.558 86.182,58.867 41.652,36 93.231,84.141 		"/>
		<polygon fill="#DC68A1" points="41.652,134 41.652,134 86.182,109.414 106.643,97.723 93.231,84.141 		"/>
		<path fill="#FFCA96" d="M106.643,70.558L93.232,84.14l13.411,13.583l20.803-12.035c1.203-0.688,1.203-2.234,0-2.921
			L106.643,70.558z"/>
	</g>
</g>
</svg>
