<?xml version="1.0" encoding="utf-8"?>
<!-- Generator: Adobe Illustrator 16.0.0, SVG Export Plug-In . SVG Version: 6.00 Build 0)  -->
<!DOCTYPE svg PUBLIC "-//W3C//DTD SVG 1.1//EN" "http://www.w3.org/Graphics/SVG/1.1/DTD/svg11.dtd">
<svg version="1.1" id="Capa_1" xmlns="http://www.w3.org/2000/svg" xmlns:xlink="http://www.w3.org/1999/xlink" x="0px" y="0px"
	 width="550px" height="170px" viewBox="0 0 550 170" enable-background="new 0 0 550 170" xml:space="preserve">
<g>
	<rect width="550" height="170"/>
	<text transform="matrix(1 0 0 1 178.4658 62.1514)" fill="#FFFFFF" font-family="'Montserrat-Medium'" font-size="26">GET IT FROM</text>
	<text transform="matrix(1 0 0 1 178.4658 115.5313)" fill="#FFFFFF" font-family="'Montserrat-Medium'" font-size="55.1137">Play Store</text>
	<g>
		<g>
			<path fill="#FFFFFF" d="M120.214,88.109c-0.124-12.41,10.121-18.362,10.579-18.658c-5.757-8.424-14.724-9.578-17.919-9.711
				c-7.632-0.772-14.892,4.492-18.765,4.492c-3.863,0-9.84-4.379-16.169-4.264c-8.318,0.124-15.988,4.836-20.271,12.286
				c-8.642,14.997-2.213,37.214,6.21,49.376c4.116,5.953,9.024,12.641,15.468,12.401c6.206-0.248,8.552-4.017,16.055-4.017
				c7.502,0,9.611,4.017,16.178,3.894c6.679-0.124,10.909-6.067,14.997-12.039c4.726-6.907,6.672-13.595,6.787-13.938
				C133.216,107.866,120.343,102.936,120.214,88.109z M107.874,51.688c3.421-4.148,5.729-9.905,5.1-15.648
				c-4.927,0.201-10.898,3.281-14.434,7.422c-3.171,3.673-5.948,9.535-5.204,15.163C98.836,59.053,104.45,55.829,107.874,51.688z"/>
		</g>
	</g>
</g>
</svg>
