<?xml version="1.0" encoding="utf-8"?>
<!-- Generator: Adobe Illustrator 16.0.0, SVG Export Plug-In . SVG Version: 6.00 Build 0)  -->
<!DOCTYPE svg PUBLIC "-//W3C//DTD SVG 1.1//EN" "http://www.w3.org/Graphics/SVG/1.1/DTD/svg11.dtd">
<svg version="1.1"
	 id="svg3765" xmlns:dc="http://purl.org/dc/elements/1.1/" xmlns:cc="http://creativecommons.org/ns#" xmlns:rdf="http://www.w3.org/1999/02/22-rdf-syntax-ns#" xmlns:inkscape="http://www.inkscape.org/namespaces/inkscape" xmlns:svg="http://www.w3.org/2000/svg" xmlns:sodipodi="http://sodipodi.sourceforge.net/DTD/sodipodi-0.dtd" inkscape:version="0.92.1 r15371" sodipodi:docname="download_app_microsoft.svg"
	 xmlns="http://www.w3.org/2000/svg" xmlns:xlink="http://www.w3.org/1999/xlink" x="0px" y="0px" width="550px" height="170px"
	 viewBox="0 0 550 170" enable-background="new 0 0 550 170" xml:space="preserve">
<sodipodi:namedview  bordercolor="#666666" borderopacity="1.0" inkscape:zoom="0.49497475" inkscape:cx="20.308025" inkscape:cy="377.49299" pagecolor="#ffffff" showgrid="false" id="base" inkscape:window-maximized="1" inkscape:window-width="1920" inkscape:pageopacity="0.0" inkscape:window-height="1018" inkscape:pageshadow="2" inkscape:document-units="mm" inkscape:window-x="1912" inkscape:window-y="-8" inkscape:current-layer="layer1">
	</sodipodi:namedview>
<g>
	<rect width="550" height="170"/>
	<g>
		<path id="path56-6" inkscape:connector-curvature="0" fill="#F04F2B" d="M89.465,36.04c0,14.999,0,29.998,0,44.999
			c-15,0-29.997,0-44.998,0c0-14.97,0-29.939,0-44.905c-0.004-0.05-0.004-0.089,0.029-0.095C59.49,36.04,74.478,36.04,89.465,36.04z
			"/>
		<path id="path56-6_1_" inkscape:connector-curvature="0" fill="#7EB920" d="M142.465,36.04c0,14.999,0,29.998,0,44.999
			c-15,0-29.997,0-44.998,0c0-14.97,0-29.939,0-44.905c-0.004-0.05-0.004-0.089,0.029-0.095
			C112.49,36.04,127.478,36.04,142.465,36.04z"/>
		<path id="path56-6_3_" inkscape:connector-curvature="0" fill="#16A4EC" d="M89.465,89.041c0,14.998,0,29.998,0,44.998
			c-15,0-29.997,0-44.998,0c0-14.971,0-29.939,0-44.904c-0.004-0.051-0.004-0.09,0.029-0.096
			C59.49,89.041,74.478,89.041,89.465,89.041z"/>
		<path id="path56-6_2_" inkscape:connector-curvature="0" fill="#FEB728" d="M142.465,89.041c0,14.998,0,29.998,0,44.998
			c-15,0-29.997,0-44.998,0c0-14.971,0-29.939,0-44.904c-0.004-0.051-0.004-0.09,0.029-0.096
			C112.49,89.041,127.478,89.041,142.465,89.041z"/>
	</g>
	<g>
		<text transform="matrix(1 0 0 1 178.4658 62.1514)" fill="#FFFFFF" font-family="'Montserrat-Medium'" font-size="26">GET IT FROM</text>
		<text transform="matrix(1 0 0 1 178.4658 115.5313)" fill="#FFFFFF" font-family="'Montserrat-Medium'" font-size="55.1137">Microsoft</text>
	</g>
</g>
</svg>
