<?xml version="1.0" encoding="utf-8"?>
<!-- Generator: Adobe Illustrator 16.0.0, SVG Export Plug-In . SVG Version: 6.00 Build 0)  -->
<!DOCTYPE svg PUBLIC "-//W3C//DTD SVG 1.1//EN" "http://www.w3.org/Graphics/SVG/1.1/DTD/svg11.dtd">
<svg version="1.1" id="Layer_1" xmlns="http://www.w3.org/2000/svg" xmlns:xlink="http://www.w3.org/1999/xlink" x="0px" y="0px"
	 width="40px" height="40px" viewBox="0 0 40 40" enable-background="new 0 0 40 40" xml:space="preserve">
<rect fill="#F36B21" width="40" height="40"/>
<g>
	<g>
		<g>
			<path fill="#FFFFFF" d="M30.805,6.489c-2.541-1.139-5.638-0.535-7.757,1.54c-1.604,1.572-3.183,3.169-4.771,4.755
				c-0.072,0.071-0.127,0.155-0.219,0.271c1.552-0.296,2.922-0.031,4.261,0.729l0,0c0.572,2.085,2.506,3.588,4.774,3.588
				c0.165,0,0.327-0.007,0.487-0.022c-1.083,1.086-2.169,2.17-3.255,3.254c-0.584,0.582-1.297,0.938-2.121,1.029
				c-0.973,0.108-1.823-0.154-2.558-0.835c-0.748-0.701-1.879-0.648-2.543,0.066c-0.687,0.738-0.66,1.816,0.104,2.531
				c0.392,0.367,0.828,0.714,1.292,0.98c2.633,1.517,6.012,1.007,8.32-1.26c1.889-1.851,3.767-3.715,5.63-5.595
				c0.409-0.411,0.778-0.879,1.086-1.373C35.736,12.61,34.461,8.128,30.805,6.489z"/>
			<g>
				<path fill="none" d="M11.458,24.637c-0.093,0.094-0.187,0.186-0.278,0.279c-0.915,0.916-1.408,1.995-1.14,3.297
					c0.359,1.742,2.161,2.742,3.877,2.118c0.223-0.08,0.439-0.193,0.651-0.313"/>
				<path fill="#FFFFFF" d="M22.806,27.152c0.07-0.069,0.128-0.15,0.195-0.228c-1.545,0.326-2.967,0.094-4.337-0.684
					c-0.088,0.085-0.194,0.179-0.294,0.277c-0.213,0.213-0.425,0.429-0.639,0.645l1.852,3.204
					C20.657,29.298,21.733,28.225,22.806,27.152z"/>
				<path fill="#FFFFFF" d="M13.479,22.608L11.624,19.4c-0.333,0.332-0.664,0.667-0.997,1l1.854,3.209
					C12.813,23.274,13.146,22.939,13.479,22.608z"/>
				<path fill="#FFFFFF" d="M15.696,29.167l1.842,3.188c0.171-0.138,0.337-0.286,0.497-0.445c0.175-0.172,0.348-0.346,0.521-0.521
					l-1.848-3.195C16.376,28.525,16.04,28.853,15.696,29.167z"/>
			</g>
			<g>
				<path fill="#FFFFFF" d="M23.861,16.662c-0.499-0.459-1.057-0.888-1.657-1.197c-2.621-1.347-5.849-0.738-8.116,1.497
					c-0.479,0.473-0.956,0.947-1.434,1.42l1.848,3.197c0.658-0.662,1.316-1.32,1.975-1.979c1.562-1.563,3.26-1.661,4.989-0.301
					c0.764,0.599,1.843,0.509,2.479-0.203C24.58,18.378,24.58,17.323,23.861,16.662z"/>
				<path fill="#FFFFFF" d="M14.567,30.019c-0.212,0.119-0.428,0.232-0.651,0.313c-1.716,0.624-3.518-0.376-3.877-2.118
					c-0.268-1.302,0.225-2.381,1.14-3.297c0.091-0.094,0.185-0.186,0.278-0.279l-1.854-3.205c-0.326,0.331-0.655,0.657-0.98,0.988
					c-0.503,0.516-0.959,1.108-1.314,1.737c-0.398,0.706-0.658,1.441-0.797,2.185c-0.002-0.004,0.016-0.065,0.014-0.071
					c0,0.015-0.018,0.088-0.018,0.1c-0.317,1.751,0.067,3.519,1.031,4.924l-0.054,0.146L4.512,33.9l5.424-0.521
					c0.104,0.055,0.21,0.105,0.318,0.151c1.959,0.858,4.216,0.688,6.126-0.377L14.567,30.019z"/>
			</g>
		</g>
		<path fill="#FFFFFF" d="M3.183,6.842c0,0,10.958,0.222,11.746,10.57C14.928,17.412,4.91,18.726,3.183,6.842z"/>
		<path fill="#FFFFFF" d="M25.073,23.309c0,0,10.956,0.219,11.744,10.566C36.817,33.875,26.799,35.19,25.073,23.309z"/>
	</g>
</g>
</svg>
