<?xml version="1.0" encoding="utf-8"?>
<!-- Generator: Adobe Illustrator 16.0.0, SVG Export Plug-In . SVG Version: 6.00 Build 0)  -->
<!DOCTYPE svg PUBLIC "-//W3C//DTD SVG 1.1//EN" "http://www.w3.org/Graphics/SVG/1.1/DTD/svg11.dtd">
<svg version="1.1" id="Layer_1" xmlns="http://www.w3.org/2000/svg" xmlns:xlink="http://www.w3.org/1999/xlink" x="0px" y="0px"
	 width="144px" height="59px" viewBox="0 0 144 59" enable-background="new 0 0 144 59" xml:space="preserve">
<g id="Ellipse_1_1_" enable-background="new    ">
	<g id="Ellipse_1">
		<g>
			<circle fill="#FFFFFF" cx="29.5" cy="29.5" r="29"/>
		</g>
	</g>
</g>
<g id="Group_1_1_">
	<g id="UIKIT">
	</g>
	<g id="WEB_TOOLKIT">
		<g>
			<g>
				<path fill="#FFFFFF" d="M85.016,15.323v12.27c0,2.075-0.69,3.677-2.07,4.804c-1.379,1.125-3.184,1.688-5.414,1.688
					c-2.223,0-4.018-0.563-5.383-1.688c-1.367-1.127-2.05-2.729-2.05-4.804v-12.27h3.741v12.26c0,1.219,0.328,2.129,0.981,2.733
					c0.656,0.605,1.561,0.908,2.709,0.908c1.168,0,2.084-0.301,2.748-0.9c0.662-0.602,0.994-1.514,0.994-2.741v-12.26H85.016z"/>
				<path fill="#FFFFFF" d="M93.539,33.816h-3.729V15.323h3.729V33.816z"/>
				<path fill="#FFFFFF" d="M104.361,26.094h-2.068v7.723h-3.73V15.323h3.73v7.558h1.621l4.93-7.558h4.561l-6.26,8.612l6.756,9.881
					h-4.545L104.361,26.094z"/>
				<path fill="#FFFFFF" d="M120.729,33.816h-3.73V15.323h3.73V33.816z"/>
				<path fill="#FFFFFF" d="M138.6,18.181h-5.264v15.637h-3.729V18.181h-5.234v-2.858H138.6V18.181z"/>
			</g>
			<g>
				<path fill="#FFFFFF" d="M75.948,41.504h0.028L77,36.979h1.4l-1.672,6.604h-1.334l-1.313-4.359h-0.031l-1.313,4.359h-1.334
					l-1.677-6.604h1.407l1.028,4.522l0.029,0.003l1.344-4.525h1.058L75.948,41.504z"/>
				<path fill="#FFFFFF" d="M84.116,40.68h-2.968v1.883h3.47v1.021h-4.904v-6.604h4.896V38H81.15v1.661h2.967L84.116,40.68
					L84.116,40.68z"/>
				<path fill="#FFFFFF" d="M86.003,43.582v-6.604h2.42c0.845,0,1.501,0.15,1.974,0.453s0.709,0.756,0.709,1.355
					c0,0.306-0.088,0.579-0.264,0.818c-0.176,0.24-0.431,0.422-0.765,0.543c0.43,0.084,0.751,0.266,0.967,0.545
					c0.214,0.277,0.322,0.6,0.322,0.966c0,0.632-0.228,1.11-0.681,1.436c-0.451,0.325-1.094,0.487-1.924,0.487H86.003L86.003,43.582
					z M87.439,39.744h1.033c0.383,0,0.678-0.072,0.885-0.217c0.207-0.146,0.311-0.357,0.311-0.637c0-0.305-0.104-0.531-0.313-0.676
					c-0.207-0.146-0.521-0.218-0.934-0.218h-0.982V39.744z M87.439,40.662v1.9h1.322c0.381,0,0.672-0.078,0.871-0.229
					c0.2-0.151,0.301-0.378,0.301-0.676c0-0.323-0.086-0.57-0.256-0.741c-0.171-0.17-0.439-0.254-0.809-0.254H87.439z"/>
				<path fill="#FFFFFF" d="M100.934,37.998h-2.026v5.584h-1.438v-5.584h-2.017v-1.021h5.479v1.021H100.934z"/>
				<path fill="#FFFFFF" d="M107.839,40.873c0,0.813-0.278,1.48-0.835,2.01c-0.556,0.529-1.277,0.795-2.167,0.795
					c-0.883,0-1.599-0.266-2.149-0.795c-0.553-0.527-0.826-1.197-0.826-2.01v-1.188c0-0.808,0.273-1.477,0.824-2.008
					c0.549-0.529,1.266-0.795,2.146-0.795c0.89,0,1.612,0.266,2.171,0.795c0.559,0.531,0.837,1.2,0.837,2.008V40.873z
					 M106.402,39.68c0-0.514-0.141-0.938-0.42-1.268c-0.278-0.33-0.662-0.495-1.151-0.495c-0.488,0-0.866,0.163-1.136,0.493
					c-0.271,0.328-0.402,0.752-0.402,1.27v1.2c0,0.524,0.137,0.951,0.407,1.281c0.272,0.33,0.649,0.496,1.137,0.496
					c0.492,0,0.876-0.166,1.151-0.496s0.414-0.757,0.414-1.281V39.68z"/>
				<path fill="#FFFFFF" d="M115.225,40.873c0,0.813-0.277,1.48-0.834,2.01s-1.279,0.795-2.168,0.795
					c-0.883,0-1.598-0.266-2.148-0.795c-0.553-0.527-0.826-1.197-0.826-2.01v-1.188c0-0.808,0.273-1.477,0.822-2.008
					c0.551-0.529,1.266-0.795,2.147-0.795c0.89,0,1.612,0.266,2.169,0.795c0.559,0.531,0.838,1.2,0.838,2.008V40.873z
					 M113.787,39.68c0-0.514-0.139-0.938-0.418-1.268s-0.663-0.495-1.151-0.495c-0.487,0-0.866,0.163-1.137,0.493
					c-0.269,0.328-0.403,0.752-0.403,1.27v1.2c0,0.524,0.137,0.951,0.408,1.281s0.65,0.496,1.137,0.496
					c0.492,0,0.877-0.166,1.151-0.496s0.413-0.757,0.413-1.281V39.68z"/>
				<path fill="#FFFFFF" d="M118.286,42.563h3.188v1.021h-4.625v-6.604h1.437V42.563z"/>
				<path fill="#FFFFFF" d="M125.037,40.824h-0.797v2.758h-1.436v-6.604h1.436v2.697h0.626l1.897-2.697h1.756l-2.41,3.076
					l2.604,3.527h-1.752L125.037,40.824z"/>
				<path fill="#FFFFFF" d="M131.343,43.582h-1.438v-6.604h1.438V43.582z"/>
				<path fill="#FFFFFF" d="M138.227,37.998H136.2v5.584h-1.437v-5.584h-2.018v-1.021h5.479v1.021H138.227z"/>
			</g>
		</g>
	</g>
</g>
</svg>
