<?xml version="1.0" encoding="utf-8"?>
<!-- Generator: Adobe Illustrator 16.0.0, SVG Export Plug-In . SVG Version: 6.00 Build 0)  -->
<!DOCTYPE svg PUBLIC "-//W3C//DTD SVG 1.1//EN" "http://www.w3.org/Graphics/SVG/1.1/DTD/svg11.dtd">
<svg version="1.1" xmlns="http://www.w3.org/2000/svg" xmlns:xlink="http://www.w3.org/1999/xlink" x="0px" y="0px" width="144px"
	 height="59px" viewBox="0 0 144 59" enable-background="new 0 0 144 59" xml:space="preserve">
<g id="Ellipse_1_1_" enable-background="new    ">
	<g id="Ellipse_1">
		<g>
			<circle fill="#444444" cx="29.5" cy="29.5" r="29"/>
		</g>
	</g>
</g>
<g id="Group_1_1_">
	<g id="UIKIT">
	</g>
	<g id="WEB_TOOLKIT">
		<g>
			<g>
				<path fill="#444444" d="M85.016,15.323v12.27c0,2.075-0.691,3.676-2.071,4.803c-1.378,1.125-3.184,1.688-5.414,1.688
					c-2.223,0-4.017-0.563-5.383-1.688c-1.367-1.127-2.05-2.728-2.05-4.803v-12.27h3.741v12.26c0,1.219,0.328,2.129,0.982,2.734
					c0.656,0.605,1.56,0.908,2.709,0.908c1.167,0,2.083-0.301,2.747-0.901c0.663-0.602,0.995-1.514,0.995-2.741v-12.26H85.016z"/>
				<path fill="#444444" d="M93.539,33.817h-3.729V15.323h3.729V33.817z"/>
				<path fill="#444444" d="M104.361,26.094h-2.068v7.723h-3.73V15.323h3.73v7.558h1.621l4.93-7.558h4.561l-6.26,8.612l6.756,9.882
					h-4.546L104.361,26.094z"/>
				<path fill="#444444" d="M120.728,33.817h-3.73V15.323h3.73V33.817z"/>
				<path fill="#444444" d="M138.599,18.181h-5.263v15.637h-3.728V18.181h-5.235v-2.858h14.226V18.181z"/>
			</g>
			<g>
				<path fill="#444444" d="M75.948,41.504h0.028l1.024-4.526h1.401l-1.672,6.604h-1.335l-1.312-4.36h-0.031l-1.313,4.36h-1.334
					l-1.677-6.604h1.407l1.028,4.523l0.029,0.003l1.344-4.526h1.058L75.948,41.504z"/>
				<path fill="#444444" d="M84.116,40.679h-2.967v1.884h3.469v1.02h-4.904v-6.604h4.895v1.021h-3.459v1.661h2.967V40.679z"/>
				<path fill="#444444" d="M86.003,43.582v-6.604h2.42c0.844,0,1.501,0.151,1.973,0.453c0.473,0.303,0.709,0.756,0.709,1.356
					c0,0.306-0.088,0.579-0.263,0.819c-0.176,0.24-0.431,0.422-0.765,0.542c0.43,0.085,0.751,0.266,0.967,0.545
					c0.214,0.278,0.322,0.6,0.322,0.966c0,0.632-0.228,1.111-0.68,1.436c-0.452,0.325-1.094,0.487-1.925,0.487H86.003z
					 M87.439,39.744h1.033c0.384,0,0.679-0.072,0.886-0.217c0.206-0.146,0.31-0.357,0.31-0.636c0-0.305-0.104-0.531-0.313-0.676
					c-0.207-0.146-0.52-0.218-0.933-0.218h-0.983V39.744z M87.439,40.662v1.9h1.322c0.382,0,0.673-0.077,0.872-0.229
					c0.2-0.151,0.3-0.378,0.3-0.676c0-0.323-0.085-0.57-0.256-0.741c-0.17-0.17-0.438-0.254-0.808-0.254H87.439z"/>
				<path fill="#444444" d="M100.933,37.998h-2.026v5.584h-1.438v-5.584h-2.017v-1.021h5.48V37.998z"/>
				<path fill="#444444" d="M107.839,40.873c0,0.812-0.278,1.481-0.835,2.01c-0.556,0.529-1.278,0.795-2.167,0.795
					c-0.883,0-1.599-0.266-2.15-0.795c-0.552-0.528-0.826-1.198-0.826-2.01v-1.188c0-0.807,0.274-1.476,0.824-2.007
					c0.55-0.529,1.266-0.795,2.146-0.795c0.889,0,1.613,0.266,2.171,0.795c0.558,0.531,0.837,1.2,0.837,2.007V40.873z
					 M106.402,39.68c0-0.514-0.14-0.938-0.419-1.268c-0.279-0.33-0.662-0.495-1.152-0.495c-0.488,0-0.866,0.163-1.136,0.493
					c-0.27,0.328-0.402,0.752-0.402,1.27v1.2c0,0.524,0.136,0.951,0.407,1.281c0.273,0.33,0.65,0.496,1.137,0.496
					c0.492,0,0.876-0.166,1.151-0.496s0.414-0.757,0.414-1.281V39.68z"/>
				<path fill="#444444" d="M115.225,40.873c0,0.812-0.278,1.481-0.835,2.01c-0.556,0.529-1.278,0.795-2.167,0.795
					c-0.883,0-1.598-0.266-2.149-0.795c-0.552-0.528-0.826-1.198-0.826-2.01v-1.188c0-0.807,0.274-1.476,0.823-2.007
					c0.55-0.529,1.265-0.795,2.147-0.795c0.89,0,1.612,0.266,2.169,0.795c0.559,0.531,0.838,1.2,0.838,2.007V40.873z M113.787,39.68
					c0-0.514-0.139-0.938-0.418-1.268c-0.279-0.33-0.663-0.495-1.151-0.495s-0.867,0.163-1.137,0.493
					c-0.269,0.328-0.403,0.752-0.403,1.27v1.2c0,0.524,0.136,0.951,0.408,1.281s0.651,0.496,1.137,0.496
					c0.492,0,0.876-0.166,1.151-0.496s0.413-0.757,0.413-1.281V39.68z"/>
				<path fill="#444444" d="M118.286,42.563h3.188v1.02h-4.624v-6.604h1.436V42.563z"/>
				<path fill="#444444" d="M125.037,40.824h-0.797v2.758h-1.436v-6.604h1.436v2.698h0.626l1.898-2.698h1.756l-2.41,3.076
					l2.603,3.528h-1.752L125.037,40.824z"/>
				<path fill="#444444" d="M131.343,43.582h-1.438v-6.604h1.438V43.582z"/>
				<path fill="#444444" d="M138.226,37.998h-2.026v5.584h-1.437v-5.584h-2.017v-1.021h5.479V37.998z"/>
			</g>
		</g>
	</g>
</g>
</svg>
